<svg width="98" height="98" viewBox="0 0 98 98" fill="none" xmlns="http://www.w3.org/2000/svg">
<path d="M67.2579 81.7188H30.7422" stroke="#EBF3FF" stroke-width="3" stroke-miterlimit="10" stroke-linecap="round" stroke-linejoin="round"/>
<path d="M74.9453 89.4062C79.1909 89.4062 82.6327 85.9644 82.6327 81.7187C82.6327 77.473 79.1909 74.0312 74.9453 74.0312C70.6996 74.0312 67.2578 77.473 67.2578 81.7187C67.2578 85.9644 70.6996 89.4062 74.9453 89.4062Z" stroke="#EBF3FF" stroke-width="3" stroke-miterlimit="10" stroke-linecap="round" stroke-linejoin="round"/>
<path d="M23.0546 89.4062C27.3003 89.4062 30.7421 85.9644 30.7421 81.7187C30.7421 77.473 27.3003 74.0312 23.0546 74.0312C18.809 74.0312 15.3672 77.473 15.3672 81.7187C15.3672 85.9644 18.809 89.4062 23.0546 89.4062Z" stroke="#EBF3FF" stroke-width="3" stroke-miterlimit="10" stroke-linecap="round" stroke-linejoin="round"/>
<path d="M9.60151 58.4199V60.5782C9.60151 63.7628 7.0204 66.3438 3.83597 66.3438H1.91406" stroke="#EBF3FF" stroke-width="3" stroke-miterlimit="10" stroke-linecap="round" stroke-linejoin="round"/>
<path d="M96.0013 68.7899C94.9924 69.6605 93.6778 70.1872 92.2421 70.1872C89.0575 70.1872 86.4766 67.6061 86.4766 64.4215C86.4766 62.3958 87.5201 60.6142 89.1019 59.5879" stroke="#EBF3FF" stroke-width="3" stroke-miterlimit="10" stroke-linecap="round" stroke-linejoin="round"/>
<path d="M44.8984 43.2812C65.4817 43.3082 75.4947 58.2969 75.9482 58.6563H75.948H84.5563C90.9253 58.6563 96.0876 63.8186 96.0876 70.1876V77.8751C96.0876 79.9987 94.3674 81.7189 92.2437 81.7189H82.6344" stroke="#EBF3FF" stroke-width="3" stroke-miterlimit="10" stroke-linecap="round" stroke-linejoin="round"/>
<path d="M18.2481 53.7207C18.0559 53.8976 17.8657 54.0783 17.6773 54.2607C14.7501 57.0875 10.9075 58.6559 6.94747 58.6559H1.91406C1.91406 65.0705 1.91406 71.4574 1.91406 77.8746C1.91406 79.9983 3.63404 81.7185 5.75788 81.7185H15.3672" stroke="#EBF3FF" stroke-width="3" stroke-miterlimit="10" stroke-linecap="round" stroke-linejoin="round"/>
<path d="M69.1643 62.5H20.5312C26.2543 55.5016 35.0475 50.9688 44.8467 50.9688C54.3062 50.9688 63.168 55.168 69.1565 62.4905L69.1643 62.5Z" stroke="#EBF3FF" stroke-width="3" stroke-miterlimit="10" stroke-linecap="round" stroke-linejoin="round"/>
<path d="M38.4297 62.5001V51.6338" stroke="#EBF3FF" stroke-width="3" stroke-miterlimit="10" stroke-linecap="round" stroke-linejoin="round"/>
<path d="M24.9766 30.6945C27.0995 30.6945 28.8205 28.9735 28.8205 26.8507C28.8205 24.7278 27.0995 23.0068 24.9766 23.0068C22.8538 23.0068 21.1328 24.7278 21.1328 26.8507C21.1328 28.9735 22.8538 30.6945 24.9766 30.6945Z" stroke="#EBF3FF" stroke-width="3" stroke-miterlimit="10" stroke-linecap="round" stroke-linejoin="round"/>
<path d="M36.5078 27.8123C36.4603 21.444 31.3452 16.2812 24.9767 16.2812C18.6082 16.2812 13.3989 21.444 13.4456 27.8123C13.4969 34.7822 24.9767 47.0307 24.9767 47.0307C24.9767 47.0307 36.5591 34.6798 36.5078 27.8123Z" stroke="#EBF3FF" stroke-width="3" stroke-miterlimit="10" stroke-linecap="round" stroke-linejoin="round"/>
<path d="M24.9766 54.7178C37.7137 54.7178 48.0391 44.3924 48.0391 31.6553C48.0391 18.9182 37.7137 8.59277 24.9766 8.59277C12.2395 8.59277 1.91406 18.9182 1.91406 31.6553C1.91406 44.3924 12.2395 54.7178 24.9766 54.7178Z" stroke="#EBF3FF" stroke-width="3" stroke-miterlimit="10" stroke-linecap="round" stroke-linejoin="round"/>
</svg>
