<svg width="98" height="98" viewBox="0 0 98 98" fill="none" xmlns="http://www.w3.org/2000/svg">
<g clip-path="url(#clip0_2023_9336)">
<path d="M50.3531 30.0628C49.9972 29.707 49.5034 29.502 49 29.502C48.4966 29.502 48.0028 29.7068 47.6468 30.0628C47.2907 30.4207 47.0859 30.9126 47.0859 31.416C47.0859 31.9194 47.2905 32.4132 47.6468 32.7693C48.0028 33.1268 48.4966 33.3318 49 33.3318C49.5034 33.3318 49.9972 33.127 50.3531 32.7693C50.7091 32.4132 50.9141 31.9211 50.9141 31.416C50.9141 30.9126 50.7093 30.4188 50.3531 30.0628Z" fill="#001E4A"/>
<path d="M69.7163 40.8488L58.9956 39.1234V37.4827C60.6105 36.0016 61.8625 34.175 62.6653 32.1534C67.816 31.9926 71.9573 27.7554 71.9573 22.5664C71.9573 17.6932 68.3041 13.6599 63.5932 13.0535C62.7782 5.72132 56.546 0 49 0C41.454 0 35.2218 5.72132 34.4066 13.0535C29.6955 13.6597 26.0424 17.6932 26.0424 22.5666C26.0424 27.7554 30.1836 31.9924 35.334 32.1534C36.1371 34.1765 37.3897 36.0039 39.004 37.4842V39.1234L28.2833 40.8488C22.3203 41.8083 17.9922 46.8886 17.9922 52.9286V58.8752C17.9922 59.9322 18.8493 60.7893 19.9062 60.7893H47.1102V65.6523H17.19C13.1996 65.6523 9.95312 68.8988 9.95312 72.8892V74.4222C4.31678 75.3404 0 80.2409 0 86.1328C0 92.6764 5.32358 98 11.8672 98C18.4108 98 23.7344 92.6764 23.7344 86.1328C23.7344 80.2409 19.4176 75.3404 13.7812 74.4222V72.8892C13.7812 71.0096 15.3104 69.4805 17.19 69.4805H47.1102V74.4178C41.4618 75.3258 37.1328 80.2325 37.1328 86.1328C37.1328 92.6764 42.4564 98 49 98C55.5436 98 60.8672 92.6764 60.8672 86.1328C60.8672 80.2496 56.5628 75.3549 50.9384 74.4266V69.4805H58.4905C59.5474 69.4805 60.4046 68.6234 60.4046 67.5664C60.4046 66.5095 59.5474 65.6523 58.4905 65.6523H50.9384V60.7895H78.0938C79.1507 60.7895 80.0078 59.9324 80.0078 58.8754V52.9288C80.0078 46.8886 75.6797 41.8083 69.7163 40.8488ZM63.6862 26.9356V26.8327V24.492V17.6907V17.5129V16.9532C66.2302 17.5529 68.1293 19.8421 68.1293 22.5664C68.1293 25.2907 66.23 27.5797 63.6862 28.1794V26.9356ZM34.3136 17.6909V19.8548V26.833V28.1796C31.7698 27.5799 29.8705 25.2907 29.8705 22.5664C29.8705 19.8421 31.7698 17.5531 34.3136 16.9534V17.6909ZM19.9062 86.1328C19.9062 90.5656 16.3 94.1719 11.8672 94.1719C7.43441 94.1719 3.82812 90.5656 3.82812 86.1328C3.82812 81.7 7.43441 78.0938 11.8672 78.0938C16.3 78.0938 19.9062 81.7 19.9062 86.1328ZM49 3.82812C54.2501 3.82812 58.6411 7.57375 59.643 12.5329L56.4059 14.7639C54.9169 15.7903 53.1736 16.3329 51.365 16.3329H38.1417V14.8859V14.6864C38.1417 8.69903 43.0128 3.82812 49 3.82812ZM38.1417 26.8329V20.1612H51.365C53.9532 20.1612 56.4478 19.3847 58.5787 17.916L59.8583 17.034V17.5131V17.6909V24.4922V26.8329C59.8583 26.8845 59.8564 26.9358 59.8556 26.9871C59.8279 28.3785 58.6894 29.5022 57.2915 29.5022H55.2086C54.1517 29.5022 53.2946 30.3593 53.2946 31.4163C53.2946 32.4732 54.1517 33.3303 55.2086 33.3303H57.2915C57.409 33.3303 57.5256 33.3267 57.6414 33.3204C56.7912 34.4223 55.7205 35.3636 54.4717 36.0707C51.1013 37.9844 46.9118 37.9871 43.548 36.0822C43.5447 36.0805 43.529 36.0715 43.5262 36.0697C40.2051 34.1888 38.1417 30.6495 38.1417 26.8329ZM57.0391 86.1328C57.0391 90.5656 53.4328 94.1719 49 94.1719C44.5672 94.1719 40.9609 90.5656 40.9609 86.1328C40.9609 81.7 44.5672 78.0938 49 78.0938C53.4328 78.0938 57.0391 81.7 57.0391 86.1328ZM76.1797 56.9612H21.8203V52.9288C21.8203 48.7784 24.7944 45.2875 28.8918 44.6283L41.2224 42.644C42.1501 42.4947 42.8323 41.6938 42.8323 40.7542V40.006C44.7843 40.8899 46.8919 41.3334 49.0004 41.3334C51.1085 41.3334 53.2163 40.8899 55.1677 40.0062V40.7542C55.1677 41.6938 55.8499 42.4947 56.7776 42.644L69.1082 44.6283C73.2056 45.2875 76.1797 48.7784 76.1797 52.9286V56.9612Z" fill="#001E4A"/>
<path d="M88.0469 74.4222V72.8892C88.0469 68.8988 84.8004 65.6523 80.81 65.6523H73.1172C72.0602 65.6523 71.2031 66.5095 71.2031 67.5664C71.2031 68.6234 72.0602 69.4805 73.1172 69.4805H80.81C82.6894 69.4805 84.2188 71.0096 84.2188 72.8892V74.4222C78.5824 75.3404 74.2656 80.2409 74.2656 86.1328C74.2656 92.6764 79.5892 98 86.1328 98C92.6764 98 98 92.6764 98 86.1328C98 80.2409 93.6832 75.3404 88.0469 74.4222ZM86.1328 94.1719C81.7 94.1719 78.0938 90.5656 78.0938 86.1328C78.0938 81.7 81.7 78.0938 86.1328 78.0938C90.5656 78.0938 94.1719 81.7 94.1719 86.1328C94.1719 90.5656 90.5656 94.1719 86.1328 94.1719Z" fill="#001E4A"/>
<path d="M67.2652 66.2132C66.9113 65.857 66.4175 65.6523 65.9121 65.6523C65.4087 65.6523 64.9149 65.857 64.5589 66.2132C64.2029 66.5694 64 67.063 64 67.5664C64 68.0698 64.2029 68.5636 64.5589 68.9195C64.9168 69.2755 65.4087 69.4805 65.9121 69.4805C66.4175 69.4805 66.9094 69.2757 67.2652 68.9195C67.6231 68.5636 67.8262 68.0698 67.8262 67.5664C67.8262 67.063 67.6231 66.5692 67.2652 66.2132Z" fill="#001E4A"/>
</g>
<defs>
<clipPath id="clip0_2023_9336">
<rect width="98" height="98" fill="white"/>
</clipPath>
</defs>
</svg>
