<svg width="98" height="98" viewBox="0 0 98 98" fill="none" xmlns="http://www.w3.org/2000/svg">
<g clip-path="url(#clip0_2023_9409)">
<path d="M27.9962 21.7783H7.77415C6.91556 21.7783 6.21875 22.4751 6.21875 23.3337C6.21875 24.1923 6.91556 24.8891 7.77415 24.8891H27.9962C28.8548 24.8891 29.5516 24.1923 29.5516 23.3337C29.5516 22.4751 28.8548 21.7783 27.9962 21.7783Z" fill="#EBF3FF"/>
<path d="M28.0033 29.5557H23.3367C22.4781 29.5557 21.7812 30.2525 21.7812 31.1111C21.7812 31.9697 22.4781 32.6665 23.3367 32.6665H28.0033C28.8619 32.6665 29.5587 31.9697 29.5587 31.1111C29.5587 30.2529 28.8619 29.5557 28.0033 29.5557Z" fill="#EBF3FF"/>
<path d="M18.6655 29.5557H3.11009C2.2515 29.5557 1.55469 30.2525 1.55469 31.1111C1.55469 31.9697 2.2515 32.6665 3.11009 32.6665H18.6655C19.5241 32.6665 20.2209 31.9697 20.2209 31.1111C20.2209 30.2529 19.5241 29.5557 18.6655 29.5557Z" fill="#EBF3FF"/>
<path d="M27.9962 37.333H21.7742C20.9156 37.333 20.2188 38.0298 20.2188 38.8884C20.2188 39.747 20.9156 40.4438 21.7742 40.4438H27.9962C28.8548 40.4438 29.5516 39.747 29.5516 38.8884C29.5516 38.0298 28.8548 37.333 27.9962 37.333Z" fill="#EBF3FF"/>
<path d="M96.4479 56H23.3367C22.4781 56 21.7812 56.6968 21.7812 57.5554V68.4441C21.7812 69.3027 22.4781 69.9995 23.3367 69.9995H29.0059C29.8645 69.9995 30.5613 69.3027 30.5613 68.4441C30.5613 67.5856 29.8645 66.8887 29.0059 66.8887H24.8921V59.1108H94.8921V62.8801C94.8921 65.0904 93.0938 66.8887 90.8835 66.8887C90.0249 66.8887 89.3281 67.5856 89.3281 68.4441C89.3281 69.3027 90.0249 69.9995 90.8835 69.9995C94.8096 69.9995 98.0033 66.8058 98.0033 62.8797V57.5549C98.0033 56.6968 97.3065 56 96.4479 56Z" fill="#EBF3FF"/>
<path d="M77.0994 66.8887H42.3601C41.5015 66.8887 40.8047 67.5855 40.8047 68.4441C40.8047 69.3027 41.5015 69.9995 42.3601 69.9995H77.0994C77.958 69.9995 78.6548 69.3027 78.6548 68.4441C78.6548 67.5855 77.958 66.8887 77.0994 66.8887Z" fill="#EBF3FF"/>
<path d="M81.0435 31.1113H70.0007C69.1421 31.1113 68.4453 31.8081 68.4453 32.6667V57.5555C68.4453 58.4141 69.1421 59.1109 70.0007 59.1109H96.4453C97.3039 59.1109 98.0007 58.4141 98.0007 57.5555V48.0681C98.0007 38.7179 90.3941 31.1113 81.0435 31.1113ZM94.8895 56.0001H71.5561V34.2221H81.0435C88.6783 34.2221 94.8895 40.4342 94.8895 48.0681V56.0001Z" fill="#EBF3FF"/>
<path d="M82.4427 37.333H74.6648C73.8062 37.333 73.1094 38.0298 73.1094 38.8884V48.2217C73.1094 49.0803 73.8062 49.7771 74.6648 49.7771H91.776C92.6346 49.7771 93.3314 49.0803 93.3314 48.2217C93.3314 42.2175 88.4469 37.333 82.4427 37.333ZM76.2202 46.6663V40.4443H82.4423C86.1984 40.4443 89.3402 43.1208 90.0639 46.6663H76.2202Z" fill="#EBF3FF"/>
<path d="M35.7779 60.667C31.4891 60.667 28 64.1561 28 68.4449C28 72.7338 31.4891 76.2229 35.7779 76.2229C40.0668 76.2229 43.5559 72.7338 43.5559 68.4449C43.5559 64.1561 40.0663 60.667 35.7779 60.667ZM35.7779 73.1116C33.2044 73.1116 31.1113 71.0184 31.1113 68.4449C31.1113 65.8714 33.2044 63.7783 35.7779 63.7783C38.3514 63.7783 40.4446 65.8714 40.4446 68.4449C40.4446 71.0184 38.3514 73.1116 35.7779 73.1116Z" fill="#EBF3FF"/>
<path d="M83.9967 60.667C79.7078 60.667 76.2188 64.1561 76.2188 68.4449C76.2188 72.7338 79.7078 76.2229 83.9967 76.2229C88.2855 76.2229 91.7746 72.7338 91.7746 68.4449C91.7746 64.1561 88.2855 60.667 83.9967 60.667ZM83.9967 73.1116C81.4232 73.1116 79.33 71.0184 79.33 68.4449C79.33 65.8714 81.4232 63.7783 83.9967 63.7783C86.5702 63.7783 88.6633 65.8714 88.6633 68.4449C88.6633 71.0184 86.5702 73.1116 83.9967 73.1116Z" fill="#EBF3FF"/>
<path d="M96.4446 73.1113H1.5554C0.69681 73.1113 0 73.8081 0 74.6667C0 75.5253 0.69681 76.2221 1.5554 76.2221H96.4441C97.3027 76.2221 97.9995 75.5253 97.9995 74.6667C97.9995 73.8081 97.3032 73.1113 96.4446 73.1113Z" fill="#EBF3FF"/>
<path d="M63.7813 24.8887H51.3367C50.4781 24.8887 49.7812 25.5855 49.7812 26.4441V31.9452C49.7812 32.8038 50.4781 33.5006 51.3367 33.5006C52.1952 33.5006 52.8921 32.8038 52.8921 31.9452V27.9999H62.2254V57.5553C62.2254 58.4139 62.9222 59.1107 63.7808 59.1107C64.6394 59.1107 65.3362 58.4139 65.3362 57.5553V26.4445C65.3367 25.5859 64.6398 24.8887 63.7813 24.8887Z" fill="#EBF3FF"/>
<path d="M43.5535 38.8887H32.6648C31.8062 38.8887 31.1094 39.5855 31.1094 40.4441V57.5553C31.1094 58.4139 31.8062 59.1107 32.6648 59.1107H43.5535C44.4121 59.1107 45.1089 58.4139 45.1089 57.5553V40.4445C45.1094 39.5859 44.4126 38.8887 43.5535 38.8887ZM41.9981 55.9999H34.2202V41.9999H41.9981V55.9999Z" fill="#EBF3FF"/>
<path d="M56 31.1113H43.5554C42.6968 31.1113 42 31.8081 42 32.6667V57.5555C42 58.4141 42.6968 59.1109 43.5554 59.1109H56C56.8586 59.1109 57.5554 58.4141 57.5554 57.5555V32.6667C57.5554 31.8081 56.8586 31.1113 56 31.1113ZM54.4446 56.0001H45.1113V34.2221H54.4446V56.0001Z" fill="#EBF3FF"/>
</g>
<defs>
<clipPath id="clip0_2023_9409">
<rect width="98" height="98" fill="white"/>
</clipPath>
</defs>
</svg>
