<svg width="98" height="98" viewBox="0 0 98 98" fill="none" xmlns="http://www.w3.org/2000/svg">
<path d="M39.8133 45.5958H10.7195C10.5192 45.5934 10.3204 45.6307 10.1347 45.7056C9.94891 45.7806 9.77988 45.8916 9.63737 46.0324C9.49486 46.1732 9.38171 46.3408 9.30449 46.5256C9.22727 46.7105 9.1875 46.9088 9.1875 47.1091C9.1875 47.3094 9.22727 47.5077 9.30449 47.6925C9.38171 47.8773 9.49486 48.045 9.63737 48.1858C9.77988 48.3265 9.94891 48.4376 10.1347 48.5125C10.3204 48.5875 10.5192 48.6248 10.7195 48.6223H39.8133C40.0136 48.6248 40.2123 48.5875 40.3981 48.5125C40.5839 48.4376 40.7529 48.3265 40.8954 48.1858C41.0379 48.045 41.1511 47.8773 41.2283 47.6925C41.3055 47.5077 41.3453 47.3094 41.3453 47.1091C41.3453 46.9088 41.3055 46.7105 41.2283 46.5256C41.1511 46.3408 41.0379 46.1732 40.8954 46.0324C40.7529 45.8916 40.5839 45.7806 40.3981 45.7056C40.2123 45.6307 40.0136 45.5934 39.8133 45.5958Z" fill="#001E4A"/>
<path d="M10.7195 54.6751H30.1155C30.3158 54.6775 30.5146 54.6402 30.7003 54.5653C30.8861 54.4903 31.0551 54.3793 31.1976 54.2385C31.3401 54.0977 31.4533 53.9301 31.5305 53.7453C31.6077 53.5604 31.6475 53.3621 31.6475 53.1618C31.6475 52.9615 31.6077 52.7632 31.5305 52.5784C31.4533 52.3935 31.3401 52.2259 31.1976 52.0851C31.0551 51.9444 30.8861 51.8333 30.7003 51.7583C30.5146 51.6834 30.3158 51.6461 30.1155 51.6486H10.7195C10.5192 51.6461 10.3204 51.6834 10.1347 51.7583C9.94891 51.8333 9.77988 51.9444 9.63737 52.0851C9.49486 52.2259 9.38171 52.3935 9.30449 52.5784C9.22727 52.7632 9.1875 52.9615 9.1875 53.1618C9.1875 53.3621 9.22727 53.5604 9.30449 53.7453C9.38171 53.9301 9.49486 54.0977 9.63737 54.2385C9.77988 54.3793 9.94891 54.4903 10.1347 54.5653C10.3204 54.6402 10.5192 54.6775 10.7195 54.6751Z" fill="#001E4A"/>
<path d="M10.7195 60.7288H39.8133C40.0136 60.7312 40.2123 60.6939 40.3981 60.619C40.5839 60.544 40.7529 60.433 40.8954 60.2922C41.0379 60.1514 41.1511 59.9838 41.2283 59.799C41.3055 59.6141 41.3453 59.4158 41.3453 59.2155C41.3453 59.0152 41.3055 58.8169 41.2283 58.6321C41.1511 58.4473 41.0379 58.2796 40.8954 58.1388C40.7529 57.9981 40.5839 57.887 40.3981 57.8121C40.2123 57.7371 40.0136 57.6998 39.8133 57.7023H10.7195C10.5192 57.6998 10.3204 57.7371 10.1347 57.8121C9.94891 57.887 9.77988 57.9981 9.63737 58.1388C9.49486 58.2796 9.38171 58.4473 9.30449 58.6321C9.22727 58.8169 9.1875 59.0152 9.1875 59.2155C9.1875 59.4158 9.22727 59.6141 9.30449 59.799C9.38171 59.9838 9.49486 60.1514 9.63737 60.2922C9.77988 60.433 9.94891 60.544 10.1347 60.619C10.3204 60.6939 10.5192 60.7312 10.7195 60.7288Z" fill="#001E4A"/>
<path d="M93.4062 16.8438H4.59375C3.38298 16.838 2.21935 17.3127 1.35815 18.1638C0.496952 19.0149 0.00851617 20.1728 0 21.3836L0 66.7816C0.00851617 67.9923 0.496952 69.1503 1.35815 70.0014C2.21935 70.8524 3.38298 71.3272 4.59375 71.3214H54.3594V68.2949H11.354C11.0164 66.2276 10.0318 64.3206 8.54196 62.8482C7.05208 61.3759 5.13363 60.4139 3.0625 60.1007V28.0645C5.13363 27.7513 7.05208 26.7893 8.54196 25.3169C10.0318 23.8446 11.0164 21.9376 11.354 19.8703H86.646C86.9836 21.9376 87.9681 23.8446 89.458 25.3169C90.9479 26.7893 92.8664 27.7513 94.9375 28.0645V60.1007C92.8664 60.4139 90.9479 61.3758 89.458 62.8482C87.9682 64.3206 86.9836 66.2276 86.646 68.2948H81.9219V71.3214H93.4062C94.617 71.3271 95.7807 70.8524 96.6419 70.0013C97.503 69.1503 97.9915 67.9923 98 66.7816V21.3836C97.9915 20.1728 97.503 19.0149 96.6419 18.1638C95.7807 17.3127 94.617 16.838 93.4062 16.8438ZM8.24444 68.2948H4.59375C4.19015 68.2968 3.80225 68.1386 3.51517 67.8549C3.2281 67.5712 3.0653 67.1852 3.0625 66.7816V63.1738C4.31971 63.4552 5.47236 64.0847 6.38871 64.9903C7.30507 65.8959 7.94814 67.041 8.24444 68.2948ZM3.0625 24.9914V21.3836C3.06529 20.98 3.22809 20.594 3.51517 20.3103C3.80224 20.0266 4.19014 19.8683 4.59375 19.8703H8.24444C7.94815 21.1241 7.30507 22.2693 6.38872 23.1748C5.47236 24.0804 4.31971 24.7099 3.0625 24.9914ZM94.9375 66.7816C94.9347 67.1852 94.7719 67.5712 94.4848 67.8549C94.1978 68.1386 93.8099 68.2968 93.4062 68.2948H89.7556C90.0519 67.041 90.6949 65.8959 91.6113 64.9903C92.5276 64.0847 93.6803 63.4552 94.9375 63.1738V66.7816ZM94.9375 24.9914C93.6803 24.7099 92.5276 24.0804 91.6113 23.1749C90.6949 22.2693 90.0519 21.1241 89.7556 19.8703H93.4062C93.8099 19.8684 94.1978 20.0266 94.4848 20.3103C94.7719 20.594 94.9347 20.98 94.9375 21.3836V24.9914Z" fill="#001E4A"/>
<path d="M25.2665 42.5694C25.5434 42.5696 25.8152 42.4953 26.0534 42.3544C37.2395 35.7312 33.9949 25.7794 33.9609 25.6796C33.9028 25.5097 33.8149 25.3516 33.7011 25.2126L33.6633 25.1665C33.5454 25.0224 33.4021 24.9011 33.2405 24.8085C30.7931 23.4911 28.0452 22.8324 25.2665 22.8969C22.4878 22.8324 19.74 23.4911 17.2925 24.8084C17.1177 24.9168 16.9621 25.0534 16.832 25.2126C16.7182 25.3515 16.6302 25.5097 16.5721 25.6796C16.5381 25.7794 13.2936 35.7312 24.4796 42.3543C24.7179 42.4953 24.9897 42.5695 25.2665 42.5694ZM19.3408 27.156C21.197 26.3011 23.2234 25.8797 25.2665 25.9235C27.3094 25.8797 29.3355 26.3012 31.1915 27.156C31.5747 28.9138 32.2031 34.7297 25.2665 39.2684C18.3239 34.7256 18.9595 28.9038 19.3408 27.156Z" fill="#001E4A"/>
<path d="M84.8644 56.0927C85.633 54.8549 86.0389 53.4263 86.0356 51.9692C86.066 51.28 86.1712 50.5961 86.3493 49.9295C86.5928 49.3177 86.9022 48.7343 87.2719 48.1894C88.1649 46.9945 88.6992 45.57 88.8125 44.0826C88.699 42.5952 88.1647 41.1708 87.2719 39.9758C86.902 39.431 86.5927 38.8475 86.3493 38.2357C86.1712 37.5694 86.066 36.8857 86.0356 36.1967C86.0392 34.7396 85.6335 33.3107 84.8647 32.0729C83.8991 30.9585 82.6435 30.1335 81.2374 29.6896C80.5916 29.4528 79.973 29.1473 79.3925 28.7785C78.8688 28.353 78.3925 27.8723 77.9719 27.3447C77.099 26.1422 75.9068 25.2083 74.5303 24.6488C73.1131 24.3165 71.6321 24.3777 70.2472 24.8257C69.5592 25.0142 68.853 25.1286 68.1406 25.1668C67.4284 25.1284 66.7223 25.0141 66.0344 24.8258C64.6495 24.3774 63.1685 24.3161 61.7513 24.6484C60.3747 25.2078 59.1825 26.1418 58.3097 27.3443C57.8892 27.8721 57.4127 28.3529 56.8887 28.7781C56.3085 29.1471 55.6902 29.4524 55.0446 29.6888C53.6382 30.1327 52.3824 30.9578 51.4169 32.0725C50.6482 33.3103 50.2424 34.7389 50.2456 36.196C50.2152 36.8852 50.11 37.5691 49.932 38.2357C49.6884 38.8475 49.379 39.4309 49.0093 39.9758C48.1164 41.1707 47.582 42.5952 47.4688 44.0826C47.5822 45.57 48.1165 46.9944 49.0093 48.1894C49.3792 48.7342 49.6886 49.3177 49.932 49.9295C50.1101 50.5958 50.2152 51.2795 50.2456 51.9685C50.2421 53.4256 50.6478 54.8545 51.4165 56.0923C52.3821 57.2067 53.6377 58.0317 55.0438 58.4756C55.6896 58.7124 56.3082 59.0179 56.8887 59.3867C57.078 59.5283 57.2562 59.684 57.4219 59.8525V78.144C57.4237 78.6861 57.5721 79.2176 57.8515 79.6821C58.1309 80.1467 58.5308 80.5269 59.0088 80.7826C59.4937 81.045 60.0398 81.1734 60.5907 81.1545C61.1417 81.1356 61.6777 80.9701 62.1435 80.6751L68.1406 76.8753L74.1382 80.6755C74.604 80.97 75.1399 81.1351 75.6908 81.1539C76.2416 81.1728 76.7875 81.0446 77.2724 80.7826C77.7504 80.5269 78.1503 80.1467 78.4297 79.6821C78.7091 79.2176 78.8576 78.6861 78.8594 78.144V59.8525C79.0251 59.6841 79.2033 59.5285 79.3925 59.3871C79.9727 59.0181 80.591 58.7128 81.2366 58.4764C82.643 58.0325 83.8988 57.2074 84.8644 56.0927ZM69.6719 74.2506V67.5382C69.6671 67.1352 69.5037 66.7504 69.217 66.4671C68.9304 66.1838 68.5436 66.025 68.1406 66.025C67.7376 66.025 67.3509 66.1838 67.0642 66.4671C66.7776 66.7504 66.6141 67.1352 66.6094 67.5382V74.2519L60.4844 78.144V62.8926C60.8756 63.1583 61.3018 63.3683 61.7509 63.5164C63.1681 63.8489 64.6492 63.7877 66.034 63.3394C66.7221 63.151 67.4283 63.0366 68.1406 62.9984C68.8528 63.0368 69.5589 63.1511 70.2469 63.3394C71.1342 63.5782 72.0457 63.7155 72.9639 63.7488C73.9736 63.7661 74.9635 63.4672 75.7949 62.8941L75.7909 78.1274L69.6719 74.2506ZM82.9843 51.7125C82.9995 52.6145 82.7949 53.5067 82.3881 54.3119C81.7313 54.9512 80.9299 55.4224 80.0519 55.6855C79.1856 56.007 78.3595 56.4279 77.5902 56.9398C76.8701 57.4986 76.2179 58.1398 75.647 58.8502C75.1161 59.606 74.4079 60.2198 73.5845 60.638C72.6968 60.7648 71.7917 60.6807 70.9426 60.3923C70.0278 60.1454 69.0876 60.0043 68.1406 59.9719C67.1935 60.0044 66.2533 60.1453 65.3383 60.392C64.4894 60.6805 63.5843 60.7647 62.6968 60.6376C61.8731 60.2196 61.1646 59.6057 60.6335 58.8499C60.0628 58.1395 59.4108 57.4983 58.6911 56.9395C57.9215 56.4277 57.0953 56.0066 56.2289 55.6848C55.351 55.422 54.5495 54.9509 53.8928 54.3116C53.486 53.5064 53.2814 52.6142 53.2969 51.7121C53.2528 50.7918 53.1012 49.8798 52.8449 48.9948C52.5333 48.1551 52.1232 47.3554 51.6232 46.6122C51.0532 45.8738 50.6777 45.0039 50.5312 44.0826C50.6776 43.1612 51.0531 42.2914 51.6232 41.553C52.1232 40.8097 52.5333 40.0098 52.8449 39.17C53.1012 38.285 53.2529 37.373 53.2969 36.4527C53.2817 35.5507 53.4864 34.6585 53.8932 33.8533C54.55 33.214 55.3514 32.7428 56.2293 32.4797C57.0957 32.1582 57.9218 31.7373 58.6911 31.2254C59.4112 30.6666 60.0634 30.0254 60.6343 29.3149C61.1651 28.5592 61.8733 27.9453 62.6968 27.5272C63.5845 27.4002 64.4896 27.4843 65.3387 27.7729C66.2535 28.0198 67.1936 28.1609 68.1406 28.1933C69.0877 28.1608 70.0279 28.0199 70.9429 27.7732C71.792 27.4851 72.6969 27.401 73.5845 27.5276C74.4082 27.9456 75.1166 28.5595 75.6477 29.3153C76.2185 30.0257 76.8704 30.6668 77.5902 31.2257C78.3597 31.7375 79.1859 32.1586 80.0523 32.4804C80.9303 32.7432 81.7317 33.2143 82.3884 33.8536C82.7953 34.6588 82.9998 35.551 82.9843 36.4531C83.0284 37.3734 83.1801 38.2853 83.4363 39.1704C83.7479 40.0101 84.158 40.8098 84.658 41.5529C85.2281 42.2914 85.6036 43.1612 85.75 44.0826C85.6036 45.004 85.2281 45.8738 84.658 46.6122C84.158 47.3555 83.7479 48.1554 83.4363 48.9952C83.1801 49.8802 83.0284 50.7922 82.9843 51.7125Z" fill="#001E4A"/>
<path d="M68.1358 31.9767C65.7476 32.0049 63.421 32.7389 61.4489 34.0863C59.4768 35.4337 57.9473 37.3343 57.0529 39.549C56.1584 41.7636 55.939 44.1933 56.4223 46.5324C56.9055 48.8714 58.0698 51.0153 59.7686 52.6942C61.4675 54.3731 63.6249 55.5119 65.9695 55.9675C68.3141 56.4231 70.7411 56.175 72.945 55.2545C75.1489 54.3339 77.0313 52.7821 78.3554 50.7942C79.6794 48.8063 80.3858 46.4713 80.3858 44.0828C80.3629 40.8542 79.0604 37.7665 76.7639 35.4969C74.4674 33.2274 71.3645 31.9614 68.1358 31.9767ZM68.1358 53.1624C66.3446 53.1413 64.5997 52.5908 63.1206 51.5802C61.6415 50.5697 60.4944 49.1442 59.8236 47.4832C59.1528 45.8222 58.9882 43.9999 59.3507 42.2457C59.7131 40.4914 60.5863 38.8835 61.8604 37.6243C63.1346 36.3652 64.7527 35.511 66.5111 35.1693C68.2695 34.8276 70.0898 35.0137 71.7427 35.7041C73.3957 36.3945 74.8075 37.5584 75.8005 39.0493C76.7935 40.5402 77.3233 42.2915 77.3233 44.0828C77.3062 46.5043 76.3293 48.8201 74.6069 50.5222C72.8845 52.2244 70.5573 53.1739 68.1358 53.1624Z" fill="#001E4A"/>
<path d="M70.8619 40.0103L66.1141 44.9188L65.4195 44.2009C65.1371 43.9106 64.7519 43.7429 64.347 43.7338C63.942 43.7248 63.5497 43.8751 63.2546 44.1526C63.1094 44.2889 62.9928 44.4528 62.9116 44.6347C62.8304 44.8166 62.7862 45.0129 62.7816 45.212C62.7771 45.4112 62.8122 45.6092 62.885 45.7947C62.9578 45.9801 63.0668 46.1492 63.2056 46.292L65.0071 48.1544C65.151 48.3024 65.3231 48.4201 65.5132 48.5004C65.7033 48.5808 65.9077 48.6222 66.1141 48.6222C66.3205 48.6222 66.5248 48.5808 66.7149 48.5004C66.905 48.4201 67.0771 48.3024 67.221 48.1544L73.0757 42.1014C73.2146 41.9585 73.3235 41.7895 73.3963 41.604C73.4691 41.4186 73.5043 41.2205 73.4997 41.0214C73.4951 40.8222 73.451 40.626 73.3698 40.4441C73.2886 40.2622 73.172 40.0983 73.0267 39.9619C72.7316 39.6846 72.3393 39.5343 71.9344 39.5434C71.5295 39.5524 71.1444 39.7201 70.8619 40.0103Z" fill="#001E4A"/>
</svg>
