<svg width="98" height="98" viewBox="0 0 98 98" fill="none" xmlns="http://www.w3.org/2000/svg">
<g clip-path="url(#clip0_2023_9517)">
<path d="M96.042 53.0596L89.4046 49.7313V47.0764C89.4046 46.0183 88.5389 45.1525 87.4808 45.1525H83.633C83.633 35.8987 80.0354 27.2027 73.4941 20.6615C72.4553 19.6226 71.3202 18.6799 70.1659 17.7757V2.8272C70.1659 1.76908 69.3001 0.90332 68.242 0.90332H29.7644C28.7063 0.90332 27.8405 1.76908 27.8405 2.8272V17.7757C19.3947 24.2784 14.3734 34.4365 14.3734 45.1525H10.5256C9.46753 45.1525 8.60176 46.0183 8.60176 47.0764V49.7313L1.96436 53.0596C1.3103 53.3674 0.90625 54.0408 0.90625 54.7719V70.1629C0.90625 70.894 1.3103 71.5673 1.96436 71.8752L8.60176 75.2035V77.8584C8.60176 78.9166 9.46753 79.7823 10.5256 79.7823H22.0689C23.127 79.7823 23.9928 78.9166 23.9928 77.8584V47.0764C23.9928 46.0183 23.127 45.1525 22.0689 45.1525H18.2212C18.2212 36.6682 21.7611 28.5687 27.8405 22.8163V33.6092C27.8405 34.6674 28.7063 35.5331 29.7644 35.5331H42.4428C42.4428 35.5331 47.6372 40.7276 47.6372 40.7468C48.3875 41.4971 49.6189 41.4778 50.3692 40.7468L55.5636 35.5331H68.242C69.3001 35.5331 70.1659 34.6674 70.1659 33.6092V22.8355C70.3582 23.0279 70.5699 23.201 70.7623 23.3935C76.5724 29.2035 79.7853 36.9375 79.7853 45.1525H75.9375C74.8794 45.1525 74.0136 46.0183 74.0136 47.0764V54.7719C74.0136 55.83 74.8794 56.6958 75.9375 56.6958C76.9956 56.6958 77.8614 55.83 77.8614 54.7719V49.0003H85.5569V75.9346H77.8614V70.1629C77.8614 69.1048 76.9956 68.2391 75.9375 68.2391C74.8794 68.2391 74.0136 69.1048 74.0136 70.1629V77.8584C74.0136 78.9166 74.8794 79.7823 75.9375 79.7823H79.7853V83.6301C79.7853 86.8044 77.1881 89.4017 74.0136 89.4017H60.2002C59.3922 87.17 57.2759 85.554 54.7748 85.554H43.2316C40.0571 85.554 37.4599 88.1512 37.4599 91.3256C37.4599 94.4999 40.0571 97.0972 43.2316 97.0972H54.7748C57.2759 97.0972 59.3922 95.4811 60.2002 93.2495H74.0136C79.3235 93.2495 83.633 88.94 83.633 83.6301V79.7823H87.4808C88.5389 79.7823 89.4046 78.9166 89.4046 77.8584V75.2035L96.042 71.8752C96.6961 71.5673 97.1002 70.894 97.1002 70.1629V54.7719C97.1002 54.0408 96.6961 53.3674 96.042 53.0596ZM8.60176 70.894L4.75401 68.9701V55.9647L8.60176 54.0408V70.894ZM20.145 49.0003V75.9346H12.4495V49.0003H20.145ZM66.3181 31.6854H54.7748C54.2554 31.6854 53.7744 31.897 53.4089 32.2433L49.0032 36.6682L44.5976 32.2433C44.232 31.897 43.7511 31.6854 43.2316 31.6854H31.6883V4.75108H66.3181V31.6854ZM54.7748 93.2495H43.2316C42.1735 93.2495 41.3077 92.3837 41.3077 91.3256C41.3077 90.2675 42.1735 89.4017 43.2316 89.4017H54.7748C55.833 89.4017 56.6987 90.2675 56.6987 91.3256C56.6987 92.3837 55.833 93.2495 54.7748 93.2495ZM93.2524 68.9701L89.4046 70.894V54.0408L93.2524 55.9647V68.9701Z" fill="#EBF3FF"/>
<path d="M37.4551 16.2941C38.5185 16.2941 39.379 15.4327 39.379 14.3703C39.379 13.3097 40.2414 12.4464 41.3029 12.4464C42.3644 12.4464 43.2268 13.3097 43.2268 14.3703V14.9442C43.2268 15.3801 43.0765 15.8066 42.804 16.1467L35.9521 24.7121C35.4899 25.2888 35.4016 26.0808 35.721 26.7468C36.0423 27.4138 36.7149 27.8374 37.4551 27.8374H45.1506C46.214 27.8374 47.0745 26.976 47.0745 25.9135C47.0745 24.8511 46.214 23.9897 45.1506 23.9897H41.4569L45.8082 18.5515C46.6255 17.5332 47.0745 16.2519 47.0745 14.9442V14.3703C47.0745 11.1876 44.4856 8.59863 41.3029 8.59863C38.1202 8.59863 35.5312 11.1876 35.5312 14.3703C35.5312 15.4327 36.3917 16.2941 37.4551 16.2941Z" fill="#EBF3FF"/>
<path d="M52.8458 20.1419H58.6174V25.9135C58.6174 26.976 59.4779 27.8374 60.5413 27.8374C61.6047 27.8374 62.4651 26.976 62.4651 25.9135V10.5225C62.4651 9.46005 61.6047 8.59863 60.5413 8.59863C59.4779 8.59863 58.6174 9.46005 58.6174 10.5225V16.2941H54.7696V10.5225C54.7696 9.46005 53.9091 8.59863 52.8458 8.59863C51.7824 8.59863 50.9219 9.46005 50.9219 10.5225V18.218C50.9219 19.2805 51.7824 20.1419 52.8458 20.1419Z" fill="#EBF3FF"/>
<path d="M75.9395 64.3917C77.002 64.3917 77.8634 63.5304 77.8634 62.4678C77.8634 61.4053 77.002 60.5439 75.9395 60.5439C74.877 60.5439 74.0156 61.4053 74.0156 62.4678C74.0156 63.5304 74.877 64.3917 75.9395 64.3917Z" fill="#EBF3FF"/>
</g>
<defs>
<clipPath id="clip0_2023_9517">
<rect width="98" height="98" fill="white"/>
</clipPath>
</defs>
</svg>
