<svg width="98" height="98" viewBox="0 0 98 98" fill="none" xmlns="http://www.w3.org/2000/svg">
<g clip-path="url(#clip0_2023_9187)">
<path d="M95.8008 89.712L92.4915 83.0434C92.4998 83.0233 93.966 81.3791 92.8489 79.3963C90.1386 74.579 86.2185 70.0951 81.5014 66.3508C95.5256 48.3377 92.2396 21.6851 73.0728 7.82166C72.4253 7.35361 71.5236 7.49791 71.0556 8.14465C70.5875 8.79214 70.7318 9.69534 71.3793 10.1619C89.2548 23.1124 92.2373 47.8988 79.1881 64.6169C60.938 51.7493 36.6892 51.9818 18.8309 64.6094C13.6188 57.9311 10.7948 49.7605 10.7948 41.1577C10.7948 12.47 41.2964 -5.95284 66.6465 7.24146C67.3538 7.60782 68.2264 7.33417 68.5957 6.62537C68.9636 5.91806 68.6884 5.04552 67.9796 4.67766C40.6886 -9.52376 7.90581 10.3226 7.90581 41.1577C7.90581 50.3938 10.9317 59.1656 16.5176 66.341C11.8065 70.0757 7.89011 74.5498 5.17828 79.3559C4.03358 81.3724 5.5409 83.0008 5.54464 83.0203L2.2242 89.712C1.26343 91.2425 2.67206 93.1296 4.56892 92.7977L7.16486 92.3423L7.68226 96.1854C7.93049 98.0314 10.4487 98.6408 11.6554 97.2045C11.7078 97.1424 11.7541 97.0766 11.7952 97.0071L15.8148 90.1696C17.9823 90.3812 19.5786 89.3299 20.1655 87.9183C21.9435 83.6498 25.1196 79.9862 29.2192 77.2048C35.2133 80.5081 41.9776 82.2629 49.0125 82.2629C56.0354 82.2629 62.7885 80.514 68.7751 77.222C72.9584 80.0632 76.1308 83.7747 77.8684 87.9931C78.5526 89.6552 80.4584 90.5015 82.2596 90.2548C86.454 97.375 86.2252 97.034 86.3688 97.2045C87.5741 98.6393 90.093 98.0344 90.342 96.1854L90.8594 92.3423L93.4553 92.7977C95.3499 93.1311 96.7623 91.2447 95.8008 89.712ZM10.2864 93.8721C9.86473 91.718 10.2154 90.6159 9.09313 89.795C7.91404 88.9322 6.69981 89.5954 5.45118 89.7098L7.84749 84.8797C11.1515 87.3882 9.88417 86.4259 13.1889 88.9352L10.2864 93.8721ZM81.6592 87.4054C81.141 87.4054 80.6595 87.1856 80.5406 86.8932C77.292 79.003 70.0447 73.4193 61.9429 70.6499C61.1877 70.3912 60.3675 70.7942 60.1095 71.5494C59.8508 72.3045 60.2538 73.1247 61.009 73.3827C62.7189 73.9681 64.3451 74.6694 65.8682 75.4769C55.5322 80.5679 42.9129 80.7854 32.1239 75.4612C39.3427 71.6496 47.9396 70.6394 55.6347 72.0017C56.4205 72.1423 57.1697 71.6167 57.3087 70.8308C57.4471 70.0465 56.9237 69.2959 56.1371 69.1568C40.9091 66.4636 23.2923 72.887 17.4985 86.8065C17.2967 87.2985 16.1333 87.543 15.4701 87.0375C7.61945 81.0142 7.46094 81.1832 7.69422 80.7757C10.0943 76.5207 13.7362 72.2499 18.3823 68.5729C36.0859 54.5105 61.5713 54.2682 79.6352 68.5811C86.5228 74.0369 90.3771 80.541 90.3771 80.9641C90.3771 81.0726 90.2941 81.1974 90.1498 81.3088C82.196 87.2693 82.6341 87.4054 81.6592 87.4054ZM90.7352 89.3875C89.4829 89.1662 88.2657 89.9572 88.1034 91.1632L87.7385 93.8721L84.8749 89.0017L90.1962 84.9171L92.5738 89.7098L90.7352 89.3875Z" fill="#001E4A"/>
<path d="M47.1328 29.6449V41.7954C47.1328 45.8964 49.3093 48.2501 53.106 48.2501C56.8736 48.2501 59.1233 45.8366 59.1233 41.7954V29.6449C59.1233 25.6036 56.8736 23.1924 53.106 23.1924C49.3093 23.1924 47.1328 25.5438 47.1328 29.6449ZM56.2343 29.6449V41.7954C56.2343 44.9543 54.5625 45.3603 53.106 45.3603C51.5037 45.3603 50.0226 44.9274 50.0226 41.7954V29.6449C50.0226 26.5128 51.5037 26.0814 53.106 26.0814C54.5625 26.0814 56.2343 26.4859 56.2343 29.6449Z" fill="#001E4A"/>
<path d="M41.4688 29.6451V41.7957C41.4688 49.0534 45.7103 53.2142 53.1049 53.2142C60.5264 53.2142 64.7851 49.0534 64.7851 41.7957V29.6451C64.7851 22.3896 60.5264 18.2266 53.1049 18.2266C45.7103 18.2266 41.4688 22.3896 41.4688 29.6451ZM61.8961 29.6451V41.7957C61.8961 47.4548 58.9375 50.3244 53.1049 50.3244C47.3014 50.3244 44.3578 47.4548 44.3578 41.7957V29.6451C44.3578 23.9859 47.3014 21.1163 53.1049 21.1163C58.9375 21.1163 61.8961 23.9859 61.8961 29.6451Z" fill="#001E4A"/>
<path d="M26.8265 37.7191C27.471 37.2481 27.6116 36.3441 27.1413 35.7004C26.6702 35.0559 25.767 34.9153 25.1225 35.3856C21.4103 38.0967 17.2031 41.1696 17.2031 45.498V49.7231C17.2031 51.8024 19.5254 52.9531 21.1299 52.9531H36.6346C38.3856 52.9531 39.8645 51.1347 39.8645 48.9829C39.8645 46.8415 38.4155 45.0987 36.6346 45.0987H26.0616C26.5095 44.0258 28.5649 42.6007 30.4027 41.3259C34.5799 38.4286 39.7778 34.8226 39.7778 28.5129C39.7778 18.9785 27.8718 15.3612 21.183 20.687C18.9819 22.4395 17.7691 24.9248 17.7691 27.6852C17.7691 30.5414 19.2323 32.1788 21.7834 32.1788C24.6455 32.1788 26.1895 30.3574 26.1895 28.6438C26.1895 28.0531 26.1895 26.2557 28.6209 26.2557C31.101 26.2557 31.2266 28.2811 31.2266 28.6871C31.2266 29.6711 30.6636 30.6947 29.4539 31.9081C28.8901 32.4734 28.8923 33.3878 29.4568 33.9508C30.0221 34.5138 30.9365 34.5123 31.4995 33.9478C33.2603 32.1825 34.1164 30.4614 34.1164 28.6871C34.1164 21.8369 23.3005 21.3053 23.3005 28.643C23.3005 28.821 22.8339 29.289 21.7834 29.289C21.1554 29.289 20.6589 29.289 20.6589 27.6852C20.6589 23.419 24.739 21.1161 28.5776 21.1161C32.7078 21.1161 36.8888 23.6567 36.8888 28.5129C36.8888 33.31 32.5679 36.3067 28.7563 38.9513C25.7117 41.0627 23.0829 42.8863 23.0829 45.498V46.5432C23.0829 47.341 23.7296 47.9877 24.5274 47.9877H36.5897C36.7146 48.0677 36.9755 48.4333 36.9755 48.9821C36.9755 49.5474 36.6996 49.9601 36.565 50.0633H21.1299C20.7404 50.0633 20.2312 49.8188 20.0922 49.6513V45.498C20.0922 42.6373 23.5158 40.1371 26.8265 37.7191Z" fill="#001E4A"/>
<path d="M69.5321 35.8955C67.3437 35.8955 65.6719 36.8219 65.6719 39.37V43.0246C65.6719 45.5705 67.3437 46.4969 69.5321 46.4969C71.6937 46.4969 73.3924 45.5705 73.3924 43.0246V39.37C73.3924 36.8219 71.6937 35.8955 69.5321 35.8955ZM70.8189 43.0246C70.8189 43.874 70.3299 44.2591 69.5321 44.2591C68.7344 44.2591 68.2708 43.874 68.2708 43.0246V39.37C68.2708 38.5206 68.7344 38.1341 69.5321 38.1341C70.3299 38.1341 70.8189 38.5206 70.8189 39.37V43.0246Z" fill="#001E4A"/>
<path d="M79.8525 34.8408C79.3897 34.8408 78.9777 35.0464 78.7721 35.4846C69.2766 55.0626 69.6108 54.11 69.6108 54.5272C69.6108 55.1702 70.1768 55.891 71.0523 55.891C71.5413 55.891 72.0303 55.633 72.2098 55.2472L81.2679 36.6936C81.3456 36.5395 81.3711 36.3594 81.3711 36.2046C81.3711 35.3814 80.5733 34.8408 79.8525 34.8408Z" fill="#001E4A"/>
<path d="M77.4844 47.6546V51.31C77.4844 53.8566 79.1562 54.783 81.3439 54.783C83.5054 54.783 85.2042 53.8566 85.2042 51.31V47.6546C85.2042 45.108 83.5054 44.1816 81.3439 44.1816C79.1562 44.1816 77.4844 45.108 77.4844 47.6546ZM80.0826 47.6546C80.0826 46.8067 80.5469 46.4194 81.3439 46.4194C82.1417 46.4194 82.6307 46.8067 82.6307 47.6546V51.31C82.6307 52.1579 82.1417 52.5452 81.3439 52.5452C80.5469 52.5452 80.0826 52.1579 80.0826 51.31V47.6546Z" fill="#001E4A"/>
</g>
<defs>
<clipPath id="clip0_2023_9187">
<rect width="98" height="98" fill="white"/>
</clipPath>
</defs>
</svg>
