<svg width="98" height="98" viewBox="0 0 98 98" fill="none" xmlns="http://www.w3.org/2000/svg">
<mask id="mask0_2023_9456" style="mask-type:luminance" maskUnits="userSpaceOnUse" x="0" y="0" width="98" height="98">
<path d="M0 7.62939e-06H98V98H0V7.62939e-06Z" fill="white"/>
</mask>
<g mask="url(#mask0_2023_9456)">
<path d="M77.6768 53.2722C83.1637 53.2722 87.6273 57.7359 87.6273 63.2226C87.6273 68.7091 83.1637 73.1729 77.6768 73.1729C72.1902 73.1729 67.7266 68.7091 67.7266 63.2226C67.7266 57.7359 72.1902 53.2722 77.6768 53.2722Z" stroke="#EBF3FF" stroke-width="3" stroke-miterlimit="10" stroke-linecap="round" stroke-linejoin="round"/>
<path d="M73.125 63.2227C73.125 65.7347 75.1685 67.7783 77.6805 67.7783C80.1925 67.7783 82.2361 65.7347 82.2361 63.2227C82.2361 60.7106 80.1925 58.6672 77.6805 58.6672C75.1685 58.6672 73.125 60.7106 73.125 63.2227Z" stroke="#EBF3FF" stroke-width="3" stroke-miterlimit="10" stroke-linecap="round" stroke-linejoin="round"/>
<path d="M11.9844 63.2227C11.9844 65.7347 14.028 67.7783 16.54 67.7783C19.0519 67.7783 21.0957 65.7347 21.0957 63.2227C21.0957 60.7106 19.0519 58.6672 16.54 58.6672C14.028 58.6672 11.9844 60.7106 11.9844 63.2227Z" stroke="#EBF3FF" stroke-width="3" stroke-miterlimit="10" stroke-linecap="round" stroke-linejoin="round"/>
<path d="M31.8828 63.2227C31.8828 65.7347 33.9265 67.7783 36.4383 67.7783C38.9503 67.7783 40.9941 65.7347 40.9941 63.2227C40.9941 60.7106 38.9503 58.6672 36.4383 58.6672C33.9265 58.6672 31.8828 60.7106 31.8828 63.2227Z" stroke="#EBF3FF" stroke-width="3" stroke-miterlimit="10" stroke-linecap="round" stroke-linejoin="round"/>
<path d="M15.8906 48.7432C15.8906 51.2407 17.9224 53.2725 20.4197 53.2725C22.9171 53.2725 24.9489 51.2407 24.9489 48.7432C24.9489 46.2459 22.9171 44.2142 20.4197 44.2142C17.9224 44.2142 15.8906 46.2459 15.8906 48.7432Z" stroke="#EBF3FF" stroke-width="3" stroke-miterlimit="10" stroke-linecap="round" stroke-linejoin="round"/>
<path d="M41.3359 48.7432C41.3359 51.2407 43.3675 53.2725 45.865 53.2725C48.3623 53.2725 50.3942 51.2407 50.3942 48.7432C50.3942 46.2459 48.3623 44.2142 45.865 44.2142C43.3675 44.2142 41.3359 46.2459 41.3359 48.7432Z" stroke="#EBF3FF" stroke-width="3" stroke-miterlimit="10" stroke-linecap="round" stroke-linejoin="round"/>
<path d="M87.6283 63.2229C87.6283 62.0994 87.4385 61.0202 87.0938 60.0121H96.5693V63.9197C96.5693 65.3081 95.4437 66.4336 94.0552 66.4336H87.0938C87.4385 65.4256 87.6283 64.3463 87.6283 63.2229Z" stroke="#EBF3FF" stroke-width="3" stroke-miterlimit="10" stroke-linecap="round" stroke-linejoin="round"/>
<path d="M90.8878 51.9598H96.5635V60.0117H88.8906V53.957C88.8906 52.8539 89.7847 51.9598 90.8878 51.9598Z" stroke="#EBF3FF" stroke-width="3" stroke-miterlimit="10" stroke-linecap="round" stroke-linejoin="round"/>
<path d="M84.9778 37.9487H89.2889C90.5443 37.9487 91.5714 38.9758 91.5714 40.2312V42.7038C91.5714 43.9592 90.5443 44.9863 89.2889 44.9863H84.9778C83.7224 44.9863 82.6953 43.9592 82.6953 42.7038V40.2312C82.6953 38.9758 83.7224 37.9487 84.9778 37.9487Z" stroke="#EBF3FF" stroke-width="3" stroke-miterlimit="10" stroke-linecap="round" stroke-linejoin="round"/>
<path d="M45.1197 31.2979H48.6511C49.6793 31.2979 50.5208 32.1393 50.5208 33.1676V35.193C50.5208 36.2213 49.6793 37.0625 48.6511 37.0625H45.1197C44.0914 37.0625 43.25 36.2213 43.25 35.193V33.1676C43.25 32.1393 44.0914 31.2979 45.1197 31.2979Z" stroke="#EBF3FF" stroke-width="3" stroke-miterlimit="10" stroke-linecap="round" stroke-linejoin="round"/>
<path d="M72.125 46.9883H74.0691" stroke="#EBF3FF" stroke-width="3" stroke-miterlimit="10" stroke-linecap="round" stroke-linejoin="round"/>
<path d="M82.6951 40.2316C82.6951 39.203 83.3849 38.3289 84.3243 38.0462L82.4112 33.5912C80.9673 30.2285 77.6816 27.836 73.8265 27.836H72.1094V38.2961C72.1094 39.4071 73.0099 40.3076 74.1211 40.3076H82.6951V40.2316Z" stroke="#EBF3FF" stroke-width="3" stroke-miterlimit="10" stroke-linecap="round" stroke-linejoin="round"/>
<path d="M3.73437 66.4336H7.12361C6.77888 65.4255 6.58901 64.3463 6.58901 63.2228C6.58901 62.0994 6.77888 61.0201 7.12361 60.0119H1.4375V64.1367C1.4375 65.4 2.47109 66.4336 3.73437 66.4336Z" stroke="#EBF3FF" stroke-width="3" stroke-miterlimit="10" stroke-linecap="round" stroke-linejoin="round"/>
<path d="M16.544 53.2722C22.0307 53.2722 26.4944 57.7359 26.4944 63.2226C26.4944 68.7091 22.0307 73.1729 16.544 73.1729C11.0573 73.1729 6.59375 68.7091 6.59375 63.2226C6.59375 57.7359 11.0573 53.2722 16.544 53.2722Z" stroke="#EBF3FF" stroke-width="3" stroke-miterlimit="10" stroke-linecap="round" stroke-linejoin="round"/>
<path d="M36.4344 53.2722C41.9213 53.2722 46.3849 57.7359 46.3849 63.2226C46.3849 68.7091 41.9213 73.1729 36.4344 73.1729C30.948 73.1729 26.4844 68.7091 26.4844 63.2226C26.4844 57.7359 30.948 53.2722 36.4344 53.2722Z" stroke="#EBF3FF" stroke-width="3" stroke-miterlimit="10" stroke-linecap="round" stroke-linejoin="round"/>
<path d="M36.4375 53.2723C40.8008 53.2723 44.5143 56.0963 45.8533 60.0117H66.0452V53.2723H36.4375Z" stroke="#EBF3FF" stroke-width="3" stroke-miterlimit="10" stroke-linecap="round" stroke-linejoin="round"/>
<path d="M25.9547 60.0117H27.0241C28.363 56.0963 32.0765 53.2723 36.4396 53.2723H16.5391C20.9024 53.2723 24.6158 56.0963 25.9547 60.0117Z" stroke="#EBF3FF" stroke-width="3" stroke-miterlimit="10" stroke-linecap="round" stroke-linejoin="round"/>
<path d="M3.60556 53.2723C2.40812 53.2723 1.4375 54.2429 1.4375 55.4406V60.0117H7.12361C8.46268 56.0963 12.1762 53.2723 16.5393 53.2723H3.60556Z" stroke="#EBF3FF" stroke-width="3" stroke-miterlimit="10" stroke-linecap="round" stroke-linejoin="round"/>
<path d="M53.1836 36.3153L50.4572 35.6677C50.2453 36.4676 49.5155 37.0627 48.6513 37.0627H45.1199C44.0916 37.0627 43.2504 36.2213 43.2504 35.193V33.1676C43.2504 32.5051 43.6005 31.9219 44.1238 31.5896L40.6833 27.4181C39.347 25.7787 37.3444 24.8274 35.2295 24.8274H21.1104C18.9858 24.8274 17.0475 26.0366 16.1128 27.9443C14.9944 30.2268 13.7405 32.6403 12.9112 34.2152C12.3021 35.3714 11.9844 36.6577 11.9844 37.9644V44.8646C11.9844 46.0952 12.982 47.0928 14.2125 47.0928H16.2087C16.8698 45.4095 18.51 44.2144 20.425 44.2144C22.3398 44.2144 23.9802 45.4095 24.6415 47.0928H41.6531C42.3144 45.4095 43.9544 44.2144 45.8694 44.2144C47.7844 44.2144 49.4244 45.4095 50.0857 47.0928H54.6951C55.9259 47.0928 56.9235 46.0952 56.9235 44.8646V40.977C56.9235 40.1323 56.7062 39.3351 56.3229 38.6407C55.6673 37.4526 54.5037 36.6288 53.1836 36.3153Z" stroke="#EBF3FF" stroke-width="3" stroke-miterlimit="10" stroke-linecap="round" stroke-linejoin="round"/>
<path d="M44.1227 31.5889L40.6822 27.4174C39.346 25.7782 37.3433 24.8267 35.2284 24.8267H22.0078V33.3232C22.0078 34.3802 22.8647 35.2373 23.9219 35.2373H43.2514C43.251 35.2222 43.2493 35.2076 43.2493 35.1925V33.1671C43.2493 32.5046 43.5994 31.9212 44.1227 31.5889Z" stroke="#EBF3FF" stroke-width="3" stroke-miterlimit="10" stroke-linecap="round" stroke-linejoin="round"/>
<path d="M32.6797 25.6992V46.2275" stroke="#EBF3FF" stroke-width="3" stroke-miterlimit="10" stroke-linecap="round" stroke-linejoin="round"/>
<path d="M12.8672 38.7627H14.7812" stroke="#EBF3FF" stroke-width="3" stroke-miterlimit="10" stroke-linecap="round" stroke-linejoin="round"/>
<path d="M56.1226 41.3945H53.5625" stroke="#EBF3FF" stroke-width="3" stroke-miterlimit="10" stroke-linecap="round" stroke-linejoin="round"/>
<path d="M60.2759 66.4336H68.2631C67.9184 65.4255 67.7285 64.3461 67.7285 63.2228C67.7285 62.0992 67.9184 61.0201 68.2631 60.0119H45.8594C46.2041 61.0201 46.394 62.0994 46.394 63.2228C46.394 64.3463 46.2041 65.4255 45.8594 66.4336H53.5767" stroke="#EBF3FF" stroke-width="3" stroke-miterlimit="10" stroke-linecap="round" stroke-linejoin="round"/>
<path d="M66.0469 43.6574V60.0117H68.259C69.598 56.0965 73.3115 53.2723 77.6746 53.2723C82.0379 53.2723 85.7514 56.0965 87.0905 60.0117H96.566V51.8337C96.566 51.823 96.566 51.8124 96.5658 51.8021C96.5641 51.532 96.5409 51.2641 96.4985 51.0005C96.2506 49.4706 95.258 48.1629 93.8982 47.4187L89.4375 44.9781C89.3881 44.9815 89.3393 44.9867 89.2893 44.9867H84.9781C83.7229 44.9867 82.6956 43.9596 82.6956 42.7044V40.2318C82.6956 39.2032 83.3854 38.3288 84.3248 38.0463L82.4117 33.5912C80.9678 30.2285 77.6821 27.8359 73.8272 27.8359H69.0847C67.4068 27.8359 66.0469 29.1961 66.0469 30.8739V36.9582" stroke="#EBF3FF" stroke-width="3" stroke-miterlimit="10" stroke-linecap="round" stroke-linejoin="round"/>
</g>
</svg>
