<svg width="440" height="212" viewBox="0 0 440 212" fill="none" xmlns="http://www.w3.org/2000/svg">
<mask id="mask0_2023_8721" style="mask-type:luminance" maskUnits="userSpaceOnUse" x="0" y="0" width="440" height="212">
<path d="M440 0H0V212H440V0Z" fill="white"/>
</mask>
<g mask="url(#mask0_2023_8721)">
<mask id="mask1_2023_8721" style="mask-type:luminance" maskUnits="userSpaceOnUse" x="0" y="137" width="440" height="73">
<path d="M0.867188 137.172H439.299V209.688H0.867188V137.172Z" fill="white"/>
</mask>
<g mask="url(#mask1_2023_8721)">
<path fill-rule="evenodd" clip-rule="evenodd" d="M2.88116 200.552L2.027 200.766V199.182C1.3447 198.865 0.818662 198.177 0.870746 197.109L2.88116 155.333V196.276C2.31345 196.276 1.84991 196.734 1.84991 197.302C1.84991 197.865 2.31345 198.323 2.88116 198.323V200.552ZM19.1676 196.505L2.88116 200.552V198.323C3.45408 198.323 3.91241 197.865 3.91241 197.302C3.91241 196.734 3.45408 196.276 2.88116 196.276V155.333L3.75616 137.172L4.777 137.339L4.77179 162.339L13.6624 169.865L14.0062 169.464L19.1676 173.844V176.495L12.6885 171L13.0062 170.63L4.77179 163.661V195.182L19.1676 191.609V196.505ZM49.2458 197.62C47.6208 197.62 46.303 198.932 46.303 200.547C46.303 202.161 47.6208 203.474 49.2458 203.474V197.62ZM49.2458 191.406C44.1676 191.406 40.0478 195.5 40.0478 200.547C40.0478 205.594 44.1676 209.688 49.2458 209.688V206.276C46.0635 206.276 43.4853 203.708 43.4853 200.547C43.4853 197.385 46.0635 194.818 49.2458 194.818V191.406ZM49.2458 190.422C46.277 190.422 43.5999 191.688 41.7353 193.703V192.391H38.9332V194.198C38.9332 194.75 38.4853 195.203 37.928 195.208L37.7249 204.568H37.0062L36.803 195.208C36.2457 195.203 35.7978 194.75 35.7978 194.198V192.391H35.7405L19.1676 196.505V191.609L33.5635 188.031L23.402 179.432L23.0739 179.812L19.1676 176.495V173.844L24.3968 178.281L24.0635 178.667L34.7718 187.734L35.7666 187.49H49.2458V190.422ZM49.2458 203.474C50.876 203.474 52.1937 202.161 52.1937 200.547C52.1937 198.932 50.876 197.62 49.2458 197.62V203.474ZM49.2458 209.688C54.3291 209.688 58.4437 205.594 58.4437 200.547C58.4437 195.5 54.3291 191.406 49.2458 191.406V194.818C52.4333 194.818 55.0114 197.385 55.0114 200.547C55.0114 203.708 52.4333 206.276 49.2458 206.276V209.688ZM77.4541 197.62C75.8291 197.62 74.5114 198.932 74.5114 200.547C74.5114 202.161 75.8291 203.474 77.4541 203.474V197.62ZM77.4541 191.406C72.376 191.406 68.2562 195.5 68.2562 200.547C68.2562 205.594 72.376 209.688 77.4541 209.688V206.276C74.2718 206.276 71.6885 203.708 71.6885 200.547C71.6885 197.385 74.2718 194.818 77.4541 194.818V191.406ZM77.4541 190.422C74.4801 190.422 71.803 191.688 69.9437 193.703V192.391H64.9176V194.198C64.9176 194.75 64.4697 195.203 63.9124 195.208L63.7093 204.568H62.9905L62.7874 195.208C62.2301 195.203 61.7822 194.75 61.7822 194.198V192.391H56.7562V193.703C54.8968 191.688 52.2197 190.422 49.2458 190.422V187.49H77.4541V190.422ZM77.4541 203.474C79.0791 203.474 80.3968 202.161 80.3968 200.547C80.3968 198.932 79.0791 197.62 77.4541 197.62V203.474ZM77.4541 209.688C82.5322 209.688 86.652 205.594 86.652 200.547C86.652 195.5 82.5322 191.406 77.4541 191.406V194.818C80.6364 194.818 83.2197 197.385 83.2197 200.547C83.2197 203.708 80.6364 206.276 77.4541 206.276V209.688ZM105.657 197.62C104.032 197.62 102.715 198.932 102.715 200.547C102.715 202.161 104.032 203.474 105.657 203.474V197.62ZM105.657 191.406C100.579 191.406 96.4593 195.5 96.4593 200.547C96.4593 205.594 100.579 209.688 105.657 209.688V206.276C102.475 206.276 99.8968 203.708 99.8968 200.547C99.8968 197.385 102.475 194.818 105.657 194.818V191.406ZM105.657 190.422C102.688 190.422 100.011 191.688 98.1468 193.703V192.391H93.126V194.198C93.126 194.75 92.6728 195.203 92.1208 195.208L91.9176 204.568H91.1937L90.9905 195.208C90.4385 195.203 89.9853 194.75 89.9853 194.198V192.391H84.9645V193.703C83.0999 191.688 80.428 190.422 77.4541 190.422V187.49H105.657V190.422ZM105.657 203.474C107.287 203.474 108.605 202.161 108.605 200.547C108.605 198.932 107.287 197.62 105.657 197.62V203.474ZM105.657 209.688C110.741 209.688 114.855 205.594 114.855 200.547C114.855 195.5 110.741 191.406 105.657 191.406V194.818C108.845 194.818 111.423 197.385 111.423 200.547C111.423 203.708 108.845 206.276 105.657 206.276V209.688ZM133.866 197.62C132.241 197.62 130.923 198.932 130.923 200.547C130.923 202.161 132.241 203.474 133.866 203.474V197.62ZM133.866 191.406C128.787 191.406 124.668 195.5 124.668 200.547C124.668 205.594 128.787 209.688 133.866 209.688V206.276C130.683 206.276 128.1 203.708 128.1 200.547C128.1 197.385 130.683 194.818 133.866 194.818V191.406ZM133.866 190.422C130.892 190.422 128.22 191.688 126.355 193.703V192.391H121.334V194.198C121.334 194.75 120.881 195.203 120.324 195.208L120.121 204.568H119.402L119.199 195.208C118.647 195.203 118.194 194.75 118.194 194.198V192.391H113.168V193.703C111.308 191.688 108.631 190.422 105.657 190.422V187.49H133.866V190.422ZM133.866 203.474C135.491 203.474 136.808 202.161 136.808 200.547C136.808 198.932 135.491 197.62 133.866 197.62V203.474ZM133.866 209.688C138.944 209.688 143.063 205.594 143.063 200.547C143.063 195.5 138.944 191.406 133.866 191.406V194.818C137.048 194.818 139.631 197.385 139.631 200.547C139.631 203.708 137.048 206.276 133.866 206.276V209.688ZM150.048 200.078H148.751V199.568H148.746V192.391H141.376V193.703C139.511 191.688 136.84 190.422 133.866 190.422V187.49H150.048V193.307C149.459 193.307 148.985 193.781 148.985 194.37C148.985 194.953 149.459 195.427 150.048 195.427V200.078ZM166.011 200.078H150.048V195.427C150.636 195.427 151.116 194.953 151.116 194.37C151.116 193.781 150.636 193.307 150.048 193.307V187.49H166.011V192.391H151.355V198.047H166.011V200.078ZM181.97 200.078H166.011V198.047H180.668V192.391H166.011V187.49H181.97V193.307C181.381 193.307 180.907 193.781 180.907 194.37C180.907 194.953 181.381 195.427 181.97 195.427V200.078ZM197.933 200.078H181.97V195.427C182.558 195.427 183.037 194.953 183.037 194.37C183.037 193.781 182.558 193.307 181.97 193.307V187.49H197.933V192.391H183.277V198.047H197.933V200.078ZM213.892 200.078H197.933V198.047H212.59V192.391H197.933V187.49H213.892V193.307C213.303 193.307 212.829 193.781 212.829 194.37C212.829 194.953 213.303 195.427 213.892 195.427V200.078ZM229.855 200.078H213.892V195.427C214.48 195.427 214.959 194.953 214.959 194.37C214.959 193.781 214.48 193.307 213.892 193.307V187.49H229.855V192.391H215.199V198.047H229.855V200.078ZM245.813 200.078H229.855V198.047H244.511V192.391H229.855V187.49H245.813V193.307C245.225 193.307 244.751 193.781 244.751 194.37C244.751 194.953 245.225 195.427 245.813 195.427V200.078ZM287.662 194.573C285.626 194.573 283.975 196.214 283.975 198.24C283.975 200.26 285.626 201.901 287.662 201.901V194.573ZM287.662 186.792C281.298 186.792 276.142 191.917 276.142 198.24C276.142 204.562 281.298 209.688 287.662 209.688V205.411C283.673 205.411 280.438 202.198 280.438 198.24C280.438 194.276 283.673 191.062 287.662 191.062V186.792ZM287.662 185.641C283.412 185.641 279.647 187.719 277.35 190.906H276.225V191.422C276.225 191.979 275.767 192.432 275.209 192.432H274.225C273.673 192.432 273.209 191.979 273.209 191.422V182.844H272.011V188.531H269.829V182.844H268.574C267.147 183.896 265.876 185.411 264.688 187.547L263.204 202.823H262.584L263.704 187.547C264.543 185.63 265.553 184.068 266.746 182.844H263.465V178.573L250.631 181.74L250.626 187.49H252.084V192.391H247.121V199.568H247.116V200.078H245.813V195.427C246.402 195.427 246.881 194.953 246.881 194.37C246.881 193.781 246.402 193.307 245.813 193.307V187.49H246.61V178.578L265.527 174.135L266.345 173.943H287.662V179.505H271.985V180.839H287.662V185.641ZM287.662 201.901C289.699 201.901 291.35 200.26 291.35 198.24C291.35 196.214 289.699 194.573 287.662 194.573V201.901ZM287.662 209.688C294.022 209.688 299.183 204.562 299.183 198.24C299.183 191.917 294.022 186.792 287.662 186.792V191.062C291.647 191.062 294.881 194.276 294.881 198.24C294.881 202.198 291.647 205.411 287.662 205.411V209.688ZM287.662 173.943H304.293V179.505H287.662V173.943ZM304.293 198.552H300.334C300.34 198.448 300.34 198.344 300.34 198.24C300.34 191.281 294.662 185.641 287.662 185.641V180.839H304.293V198.552ZM317.662 194.573C315.626 194.573 313.975 196.214 313.975 198.24C313.975 200.26 315.626 201.901 317.662 201.901V194.573ZM317.662 186.792C311.298 186.792 306.142 191.917 306.142 198.24C306.142 204.562 311.298 209.688 317.662 209.688V205.411C313.673 205.411 310.438 202.198 310.438 198.24C310.438 194.276 313.673 191.062 317.662 191.062V186.792ZM304.293 173.943H317.662V179.505H304.293V173.943ZM317.662 185.641C310.657 185.641 304.985 191.281 304.985 198.24C304.985 198.344 304.985 198.448 304.985 198.552H304.293V180.839H317.662V185.641ZM317.662 201.901C319.699 201.901 321.35 200.26 321.35 198.24C321.35 196.214 319.699 194.573 317.662 194.573V201.901ZM317.662 209.688C324.022 209.688 329.183 204.562 329.183 198.24C329.183 191.917 324.022 186.792 317.662 186.792V191.062C321.647 191.062 324.881 194.276 324.881 198.24C324.881 202.198 321.647 205.411 317.662 205.411V209.688ZM338.35 177.802V181.672C338.35 182 338.188 182.292 337.944 182.474H340.491V193.885H339.595C338.84 195.135 339.131 196.432 339.261 196.865H339.563V196.411C339.563 195.771 339.944 195.214 340.491 194.953V200.516C339.944 200.255 339.563 199.698 339.563 199.057V198.604H338.798C338.574 198.604 338.392 198.422 338.392 198.198V197.271C338.392 197.068 338.543 196.896 338.741 196.87C338.59 196.297 338.407 195.094 339.017 193.885H334.85C334.011 193.885 333.324 193.208 333.324 192.375V190.906H327.975C325.673 187.719 321.912 185.641 317.662 185.641V180.839H323.725L323.756 182.396C330.063 182.5 333.965 185.766 334.959 192.646H336.6C336.199 190.307 335.98 187.828 334.782 185.745C331.907 180.745 328.991 179.646 323.725 179.505H317.662V173.943H331.808V177.802H338.35ZM340.491 182.474H340.855V180.745H342.991V176.078C342.991 175.078 343.813 174.26 344.824 174.26H349.267V193.885H343.287V194.797H349.267V200.672H343.287V200.76C343.287 201.094 343.011 201.365 342.678 201.365H342.496C342.162 201.365 341.886 201.094 341.886 200.76V200.672H341.188C340.938 200.672 340.704 200.615 340.491 200.516V194.953C340.704 194.854 340.938 194.797 341.188 194.797H341.886V193.885H340.491V182.474ZM349.267 174.26H355.871C356.876 174.26 357.699 175.078 357.699 176.078V180.745H360.798V162.677C360.798 161.568 361.714 160.661 362.834 160.661H364.037V143.651C364.037 142.661 364.902 142.578 365.97 142.573V149.094H364.683V159.297H365.97V182.411C364.485 181.922 364.116 180.875 364.037 180.208V182.677H365.97V198.089H365.418V192.375C365.418 193.208 364.735 193.885 363.897 193.885H356.647V194.797H357.345C358.241 194.797 358.975 195.521 358.975 196.411V199.057C358.975 199.943 358.241 200.672 357.345 200.672H356.647V200.76C356.647 201.094 356.371 201.365 356.037 201.365H355.86C355.522 201.365 355.251 201.094 355.251 200.76V200.672H349.267V194.797H355.251V193.885H349.267V174.26ZM365.97 142.573C366.131 142.573 366.298 142.573 366.47 142.573H375.808V146.734C374.428 146.781 373.907 147.76 373.907 149.062V155.875C373.928 156.818 374.751 156.953 375.808 156.969V169.438H375.459C375.069 169.438 374.751 169.755 374.751 170.146V171.146H374.366C374.136 171.146 373.954 171.328 373.954 171.552V171.651C373.954 171.875 374.136 172.052 374.366 172.052H374.751V173.057C374.751 173.448 375.069 173.766 375.459 173.766H375.808V198.089H365.97V182.677H367.907C367.11 182.677 366.475 182.578 365.97 182.411V159.297H368.574C369.688 159.297 370.605 158.385 370.605 157.276V151.109C370.605 150 369.688 149.094 368.574 149.094H365.97V142.573ZM392.168 192.365V188.344H392.152L392.168 188.297V160.01C391.959 160.297 391.631 160.505 391.142 160.505C390.48 160.505 387.287 160.51 386.251 160.51C383.095 160.516 384.282 157.01 381.959 156.953C380.688 156.922 377.621 156.979 376.313 156.969C376.136 156.974 375.97 156.974 375.808 156.969V169.438H376.938C377.334 169.438 377.652 169.755 377.652 170.146V173.057C377.652 173.448 377.334 173.766 376.938 173.766H375.808V198.089H390.313V197.062L392.168 197.255V195.109L390.313 194.911V192.099L392.168 192.365ZM375.808 142.573H382.131C381.839 142.417 381.647 142.115 381.647 141.771V141.401C381.647 140.901 382.058 140.49 382.563 140.49H385.35C385.959 140.49 386.454 140.984 386.454 141.589C386.454 142.016 386.199 142.396 385.829 142.573H390.834C391.313 142.573 391.756 142.729 392.168 143V144.786C391.918 144.87 391.798 145.036 391.959 145.37L392.168 145.807V157.031C391.772 154.521 391.058 150.464 390.735 148.969C390.449 147.63 389.475 146.734 388.043 146.734H375.808V142.573ZM396.985 155.948C396.897 155.823 396.808 155.667 396.709 155.469L396.204 154.396L395.548 152.995C394.412 150.573 393.162 147.906 392.168 145.807V157.031C392.334 158.078 392.444 158.854 392.444 159.062C392.454 159.37 392.371 159.729 392.168 160.01V188.297C392.964 186.177 393.98 184.307 395.162 182.677H395.168C395.735 181.896 396.345 181.167 396.985 180.5V169.109C396.579 168.964 396.293 168.573 396.293 168.12C396.293 167.667 396.579 167.276 396.985 167.125V159.865C396.959 159.87 396.933 159.87 396.907 159.87H396.204V163.953C396.204 164.13 396.058 164.281 395.876 164.281H395.548V151.292H395.876C396.058 151.292 396.204 151.438 396.204 151.62V157.323H396.907C396.933 157.323 396.959 157.328 396.985 157.328V155.948ZM392.168 195.109L396.985 195.625V197.771L392.168 197.255V195.109ZM396.985 193.057L392.168 192.365V188.344H395.944C396.267 187.719 396.616 187.125 396.985 186.557V193.057ZM392.168 143C393.105 143.62 393.871 144.818 394.522 146.068C395.438 147.833 396.225 149.594 396.985 151.354V152.417C396.079 150.302 395.162 148.188 394.063 146.068C393.829 145.62 393.579 145.172 393.313 144.76C392.886 144.724 392.444 144.698 392.168 144.786V143ZM396.985 167.125C397.069 167.094 397.157 167.073 397.246 167.068V159.792C397.168 159.833 397.079 159.859 396.985 159.865V167.125ZM411.131 194.573C409.095 194.573 407.449 196.214 407.449 198.24C407.449 200.26 409.095 201.901 411.131 201.901V194.573ZM411.131 186.792V191.062C407.147 191.062 403.918 194.276 403.918 198.24C403.918 202.198 407.147 205.411 411.131 205.411V209.688C404.772 209.688 399.61 204.562 399.61 198.24C399.61 191.917 404.772 186.792 411.131 186.792ZM396.985 195.625L398.694 195.807C398.558 196.495 398.48 197.203 398.459 197.927L396.985 197.771V195.625ZM411.131 185.641V178.604C405.866 178.438 400.537 181.089 396.985 186.557V193.057L399.423 193.406C401.329 188.849 405.855 185.641 411.131 185.641ZM396.985 151.354C397.798 153.24 398.589 155.12 399.48 157C400.209 158.552 402.272 158.859 403.959 159.281C405.074 159.562 407.787 160.089 411.131 160.714V174.557H411.022C410.933 174.552 410.839 174.552 410.746 174.552C410.631 174.552 410.511 174.552 410.397 174.557C410.256 174.557 410.116 174.562 409.975 174.568C409.855 174.573 409.741 174.573 409.621 174.583C409.522 174.589 409.423 174.594 409.329 174.604C409.23 174.609 409.136 174.615 409.043 174.625C408.938 174.635 408.839 174.646 408.735 174.656C408.647 174.667 408.558 174.672 408.47 174.682C408.366 174.698 408.256 174.708 408.157 174.724C408.069 174.74 407.975 174.75 407.892 174.766C407.787 174.781 407.683 174.797 407.584 174.812C407.485 174.828 407.397 174.844 407.303 174.865C407.204 174.88 407.11 174.896 407.011 174.917C406.912 174.938 406.803 174.964 406.704 174.984C406.527 175.021 406.355 175.062 406.183 175.104C406.089 175.13 406.001 175.151 405.912 175.172C405.803 175.203 405.704 175.234 405.6 175.26C405.511 175.286 405.428 175.307 405.345 175.333C405.246 175.365 405.142 175.396 405.037 175.432C404.954 175.458 404.871 175.484 404.793 175.51C404.683 175.547 404.579 175.583 404.475 175.62C404.397 175.646 404.313 175.677 404.23 175.708C404.131 175.745 404.027 175.781 403.928 175.823C403.839 175.854 403.756 175.891 403.673 175.927C403.574 175.964 403.475 176.005 403.381 176.047C403.293 176.083 403.209 176.12 403.121 176.156C402.954 176.234 402.782 176.318 402.61 176.396C402.517 176.443 402.428 176.484 402.339 176.531C402.241 176.578 402.147 176.63 402.048 176.677C401.964 176.724 401.886 176.766 401.808 176.807C401.709 176.859 401.616 176.911 401.517 176.964C401.438 177.01 401.36 177.057 401.282 177.099C401.183 177.156 401.095 177.214 401.001 177.271C400.918 177.318 400.839 177.37 400.756 177.417C400.668 177.474 400.574 177.536 400.485 177.594C400.407 177.646 400.329 177.698 400.246 177.75C400.157 177.812 400.069 177.87 399.98 177.932C399.892 177.99 399.813 178.052 399.735 178.109C399.647 178.172 399.563 178.229 399.48 178.292C398.605 178.943 397.772 179.677 396.985 180.5V169.109C397.1 169.156 397.225 169.177 397.355 169.177C397.944 169.177 398.423 168.703 398.423 168.12C398.423 167.573 398.001 167.12 397.47 167.068V159.635C397.605 159.495 397.688 159.302 397.688 159.094V158.104C397.688 157.698 397.381 157.37 396.985 157.328V155.948C397.392 156.5 397.808 156.333 398.735 156.396C398.126 155.068 397.553 153.74 396.985 152.417V151.354ZM411.131 201.901V194.573H411.136C413.173 194.573 414.824 196.214 414.824 198.24C414.824 200.26 413.173 201.901 411.136 201.901H411.131ZM420.178 191.146C418.069 188.495 414.798 186.792 411.136 186.792H411.131V191.062H411.136C415.121 191.062 418.355 194.276 418.355 198.24C418.355 202.198 415.121 205.411 411.136 205.411H411.131V209.688H411.136C414.798 209.688 418.069 207.984 420.178 205.333V191.146ZM420.178 189.411C417.876 187.083 414.678 185.641 411.136 185.641H411.131V178.604C414.298 178.703 417.444 179.818 420.178 181.943V189.411ZM411.131 160.714C413.897 161.229 417.1 161.807 420.178 162.37V170.802L416.761 175.578L415.308 177.62L415.631 177.729L417.084 175.693L420.178 171.37V177.161C420.105 177.115 420.032 177.073 419.954 177.031L419.751 176.917C419.647 176.854 419.537 176.797 419.433 176.74L419.204 176.625C419.095 176.568 418.991 176.516 418.881 176.458C418.808 176.427 418.735 176.391 418.662 176.354C418.537 176.297 418.407 176.234 418.277 176.177C418.225 176.156 418.173 176.13 418.121 176.109C417.944 176.026 417.761 175.953 417.579 175.88C417.522 175.859 417.464 175.839 417.407 175.812C417.298 175.771 417.194 175.729 417.084 175.693L417.017 175.667C416.944 175.641 416.866 175.615 416.787 175.589L416.761 175.578C416.668 175.547 416.569 175.51 416.464 175.474C416.381 175.448 416.298 175.422 416.209 175.396C416.105 175.365 415.996 175.328 415.892 175.297C415.808 175.276 415.725 175.25 415.642 175.229C415.532 175.198 415.423 175.167 415.308 175.141C415.225 175.12 415.152 175.099 415.069 175.078C414.954 175.052 414.834 175.026 414.72 175C414.642 174.979 414.569 174.964 414.491 174.948C414.324 174.911 414.168 174.88 414.001 174.849C413.918 174.833 413.834 174.823 413.751 174.807C413.616 174.786 413.485 174.766 413.355 174.745C413.277 174.734 413.199 174.724 413.116 174.714C413.006 174.698 412.892 174.682 412.777 174.672C412.688 174.661 412.605 174.651 412.517 174.646C412.412 174.63 412.303 174.625 412.194 174.615C412.105 174.604 412.017 174.599 411.923 174.594C411.819 174.589 411.714 174.583 411.605 174.573C411.517 174.573 411.428 174.568 411.339 174.562C411.272 174.562 411.204 174.557 411.131 174.557V160.714ZM420.178 205.333V191.146C421.73 193.094 422.657 195.557 422.657 198.24C422.657 200.917 421.73 203.38 420.178 205.333ZM428.511 197.484V188.344H425.412C424.001 185.651 422.204 183.521 420.178 181.943V189.411C421.704 190.953 422.834 192.885 423.402 195.042H425.412V197.484H428.511ZM420.178 162.37L422.699 162.828L423.553 162.984L424.173 163.099L424.61 163.182C426.037 163.443 427.355 163.693 428.511 163.911V178.078L428.277 178.062L427.824 183.698L428.511 183.755V186.688C428.454 186.552 428.386 186.417 428.324 186.281L428.194 186.021C428.131 185.885 428.063 185.755 427.996 185.62C427.954 185.536 427.912 185.458 427.866 185.375C427.793 185.234 427.72 185.099 427.642 184.964C427.6 184.891 427.563 184.818 427.522 184.745C427.423 184.573 427.319 184.401 427.22 184.234L427.168 184.141C427.043 183.943 426.918 183.75 426.793 183.557C426.756 183.5 426.72 183.443 426.678 183.385C426.589 183.25 426.501 183.12 426.407 182.99C426.36 182.922 426.313 182.854 426.261 182.786C426.178 182.667 426.095 182.552 426.006 182.438C425.954 182.365 425.902 182.297 425.845 182.224C425.767 182.12 425.683 182.01 425.6 181.906C425.543 181.839 425.485 181.766 425.428 181.693C425.334 181.583 425.246 181.474 425.147 181.365C425.1 181.307 425.053 181.25 425.006 181.193C424.886 181.057 424.761 180.922 424.642 180.786L424.563 180.708C424.418 180.547 424.267 180.391 424.116 180.234C424.074 180.198 424.037 180.156 423.996 180.12C423.881 180.005 423.772 179.896 423.657 179.792C423.6 179.734 423.537 179.677 423.48 179.625C423.381 179.536 423.282 179.448 423.188 179.359L422.991 179.188C422.897 179.104 422.798 179.026 422.704 178.943C422.636 178.885 422.569 178.833 422.506 178.776C422.407 178.698 422.308 178.62 422.209 178.547C422.142 178.495 422.079 178.443 422.006 178.391C421.897 178.302 421.782 178.224 421.668 178.141C421.616 178.099 421.563 178.062 421.506 178.021C421.345 177.906 421.178 177.792 421.011 177.682C420.954 177.646 420.907 177.615 420.855 177.578C420.735 177.5 420.61 177.422 420.491 177.349C420.428 177.307 420.36 177.271 420.298 177.234L420.178 177.161V171.37L424.173 165.776V178.63H424.61V158.297C424.871 158.172 425.048 157.906 425.048 157.604V157.135C425.048 156.708 424.699 156.359 424.267 156.359H423.553V153.786C423.553 153.552 423.36 153.365 423.126 153.365H422.699V163.38H423.126C423.35 163.38 423.537 163.208 423.553 162.984V158.38H424.173V165.203L420.178 170.802V162.37ZM429.694 197.484H428.511V188.344H429.204C429.11 188.104 429.022 187.87 428.928 187.641L428.829 187.422C428.767 187.266 428.699 187.104 428.636 186.953L428.517 186.698L428.511 186.688V183.755L429.423 183.828C429.511 183.833 429.605 183.833 429.694 183.828V197.484ZM428.511 163.911C428.928 163.995 429.324 164.068 429.694 164.141V178.172L428.511 178.078V163.911ZM429.694 164.141C431.178 164.432 432.256 164.661 432.72 164.797C435.839 165.693 437.142 167.458 437.423 169.703C437.496 170.297 437.475 170.891 437.475 171.49V188.344H437.751V192.646H436.756V195.854H437.751V197.484H429.694V183.828C430.584 183.771 431.324 183.062 431.397 182.156L431.558 180.146C431.636 179.146 430.881 178.266 429.876 178.188L429.694 178.172V164.141ZM437.751 188.344H438.282C438.839 188.344 439.298 188.797 439.298 189.354V196.474C439.298 197.026 438.839 197.484 438.282 197.484H437.751V195.854H438.746V192.646H437.751V188.344Z" fill="#040606"/>
</g>
<mask id="mask2_2023_8721" style="mask-type:luminance" maskUnits="userSpaceOnUse" x="60" y="42" width="231" height="140">
<path d="M60.9375 42.6667H290.406V181.307H60.9375V42.6667Z" fill="white"/>
</mask>
<g mask="url(#mask2_2023_8721)">
<path d="M60.9375 181.401L195.792 68.0418L103.323 43.8022H290.438L60.9375 181.401Z" fill="#242424"/>
</g>
<path d="M255.964 134.672L176.469 125.266L217.557 100.609L255.964 134.672Z" fill="#242424"/>
<mask id="mask3_2023_8721" style="mask-type:luminance" maskUnits="userSpaceOnUse" x="226" y="0" width="35" height="34">
<path d="M226.672 0.515625H260.005V33.3333H226.672V0.515625Z" fill="white"/>
</mask>
<g mask="url(#mask3_2023_8721)">
<path d="M227.273 0.640625H259.169V32.5312H227.273V0.640625Z" fill="#242424"/>
</g>
<mask id="mask4_2023_8721" style="mask-type:luminance" maskUnits="userSpaceOnUse" x="57" y="113" width="257" height="89">
<path d="M313.336 113.333H57.3359V201.333H313.336V113.333Z" fill="white"/>
</mask>
<g mask="url(#mask4_2023_8721)">
<path d="M90.6771 155.593C91.5781 154.833 92.1615 153.896 92.4271 152.781C92.7031 151.672 92.5521 150.75 91.9688 150.01C91.3958 149.276 90.5781 148.906 89.5104 148.906H85.6354L87.8438 139.239H95.1146C99.625 139.239 102.849 140.489 104.781 142.989C106.708 145.489 107.266 148.567 106.448 152.218C105.833 154.817 104.583 157.166 102.698 159.26C100.807 161.343 98.4271 162.88 95.5521 163.864L100.906 181.593H85.6354L81.6979 166.135L83.8438 156.718H87.7396C88.7917 156.718 89.7708 156.343 90.6771 155.593ZM70.9896 181.593H59.4688L69.1979 139.239H80.7188L70.9896 181.593Z" fill="#FF8F3F" fill-opacity="0.4"/>
<path d="M159.319 139.239L153.464 164.531C152.115 170.323 149.266 174.739 144.923 177.781C140.574 180.812 135.032 182.323 128.298 182.323C128.173 182.323 128.048 182.323 127.923 182.323L130.256 172.177C130.381 172.177 130.485 172.177 130.569 172.177C132.996 172.177 135.016 171.463 136.631 170.031C138.256 168.588 139.35 166.698 139.923 164.364L145.714 139.239H159.319ZM120.964 181.531C116.824 180.547 113.907 178.614 112.214 175.739C110.532 172.864 110.225 169.13 111.298 164.531L117.152 139.239H130.756L120.964 181.531Z" fill="#FF8F3F" fill-opacity="0.4"/>
<path d="M210.529 139.239L200.799 181.593H188.924L181.112 169.281L185.904 148.343L193.237 160.114L198.029 139.239H210.529ZM175.883 161.031L171.133 181.593H158.633L168.362 139.239H180.237L180.737 139.968L175.883 161.031Z" fill="#FF8F3F" fill-opacity="0.4"/>
<path d="M90.6771 155.593C91.5781 154.833 92.1615 153.896 92.4271 152.781C92.7031 151.672 92.5521 150.75 91.9688 150.01C91.3958 149.276 90.5781 148.906 89.5104 148.906H85.6354L87.8438 139.239H95.1146C99.625 139.239 102.849 140.489 104.781 142.989C106.708 145.489 107.266 148.567 106.448 152.218C105.833 154.817 104.583 157.166 102.698 159.26C100.807 161.343 98.4271 162.88 95.5521 163.864L100.906 181.593H85.6354L81.6979 166.135L83.8438 156.718H87.7396C88.7917 156.718 89.7708 156.343 90.6771 155.593ZM70.9896 181.593H59.4688L69.1979 139.239H80.7188L70.9896 181.593Z" fill="#242424"/>
<path d="M159.319 139.239L153.464 164.531C152.115 170.323 149.266 174.739 144.923 177.781C140.574 180.812 135.032 182.323 128.298 182.323C128.173 182.323 128.048 182.323 127.923 182.323L130.256 172.177C130.381 172.177 130.485 172.177 130.569 172.177C132.996 172.177 135.016 171.463 136.631 170.031C138.256 168.588 139.35 166.698 139.923 164.364L145.714 139.239H159.319ZM120.964 181.531C116.824 180.547 113.907 178.614 112.214 175.739C110.532 172.864 110.225 169.13 111.298 164.531L117.152 139.239H130.756L120.964 181.531Z" fill="#242424"/>
<path d="M210.529 139.239L200.799 181.593H188.924L181.112 169.281L185.904 148.343L193.237 160.114L198.029 139.239H210.529ZM175.883 161.031L171.133 181.593H158.633L168.362 139.239H180.237L180.737 139.968L175.883 161.031Z" fill="#242424"/>
</g>
<mask id="mask5_2023_8721" style="mask-type:luminance" maskUnits="userSpaceOnUse" x="248" y="58" width="96" height="145">
<path d="M344 58.6667H248V202.667H344V58.6667Z" fill="white"/>
</mask>
<g mask="url(#mask5_2023_8721)">
<mask id="mask6_2023_8721" style="mask-type:luminance" maskUnits="userSpaceOnUse" x="250" y="100" width="94" height="71">
<path d="M250.664 100H343.622V170.667H250.664V100Z" fill="white"/>
</mask>
<g mask="url(#mask6_2023_8721)">
<path d="M342.893 101.253L313.06 133.795L329.393 170.128H302.56L294.747 148.711H294.352L276.727 170.128H251.914L284.935 133.69L270.122 101.253H296.852L303.268 118.878H303.664L318.185 101.253H342.893Z" fill="#FF8F3F" fill-opacity="0.4"/>
<path d="M342.893 101.253L313.06 133.795L329.393 170.128H302.56L294.747 148.711H294.352L276.727 170.128H251.914L284.935 133.69L270.122 101.253H296.852L303.268 118.878H303.664L318.185 101.253H342.893Z" fill="#242424"/>
</g>
</g>
</g>
</svg>
