<svg width="86" height="47" viewBox="0 0 86 47" fill="none" xmlns="http://www.w3.org/2000/svg">
<mask id="mask0_2023_8724" style="mask-type:luminance" maskUnits="userSpaceOnUse" x="0" y="0" width="86" height="47">
<path d="M86 0.5H0V46.5H86V0.5Z" fill="white"/>
</mask>
<g mask="url(#mask0_2023_8724)">
<mask id="mask1_2023_8724" style="mask-type:luminance" maskUnits="userSpaceOnUse" x="0" y="30" width="86" height="16">
<path d="M0.167969 30.2637H85.8616V45.9982H0.167969V30.2637Z" fill="white"/>
</mask>
<g mask="url(#mask1_2023_8724)">
<path fill-rule="evenodd" clip-rule="evenodd" d="M0.561609 44.016L0.394659 44.0623V43.7188C0.261301 43.6498 0.158484 43.5007 0.168664 43.269L0.561609 34.2044V43.0882C0.450648 43.0882 0.360047 43.1876 0.360047 43.3108C0.360047 43.4328 0.450648 43.5323 0.561609 43.5323V44.016ZM3.74487 43.1379L0.561609 44.016V43.5323C0.673589 43.5323 0.763172 43.4328 0.763172 43.3108C0.763172 43.1876 0.673589 43.0882 0.561609 43.0882V34.2044L0.732632 30.2637L0.932159 30.2998L0.931141 35.7244L2.66885 37.3574L2.73604 37.2704L3.74487 38.2208V38.796L2.47849 37.6037L2.54059 37.5235L0.931141 36.0114V42.8508L3.74487 42.0756V43.1379ZM9.62378 43.3797C9.30617 43.3797 9.04861 43.6645 9.04861 44.0149C9.04861 44.3652 9.30617 44.65 9.62378 44.65V43.3797ZM9.62378 42.0315C8.63124 42.0315 7.826 42.9198 7.826 44.0149C7.826 45.1099 8.63124 45.9982 9.62378 45.9982V45.258C9.00179 45.258 8.49788 44.7008 8.49788 44.0149C8.49788 43.3289 9.00179 42.7717 9.62378 42.7717V42.0315ZM9.62378 41.8179C9.04352 41.8179 8.52028 42.0925 8.15583 42.5299V42.2451H7.60815V42.6372C7.60815 42.757 7.52061 42.8554 7.41168 42.8565L7.37198 44.8873H7.2315L7.19179 42.8565C7.08287 42.8554 6.99532 42.757 6.99532 42.6372V42.2451H6.98412L3.74487 43.1379V42.0756L6.5586 41.2992L4.5725 39.4334L4.50837 39.5159L3.74487 38.796V38.2208L4.76694 39.1836L4.70178 39.2673L6.79478 41.2348L6.98921 41.1817H9.62378V41.8179ZM9.62378 44.65C9.94241 44.65 10.2 44.3652 10.2 44.0149C10.2 43.6645 9.94241 43.3797 9.62378 43.3797V44.65ZM9.62378 45.9982C10.6173 45.9982 11.4216 45.1099 11.4216 44.0149C11.4216 42.9198 10.6173 42.0315 9.62378 42.0315V42.7717C10.2468 42.7717 10.7507 43.3289 10.7507 44.0149C10.7507 44.7008 10.2468 45.258 9.62378 45.258V45.9982ZM15.1372 43.3797C14.8196 43.3797 14.5621 43.6645 14.5621 44.0149C14.5621 44.3652 14.8196 44.65 15.1372 44.65V43.3797ZM15.1372 42.0315C14.1447 42.0315 13.3395 42.9198 13.3395 44.0149C13.3395 45.1099 14.1447 45.9982 15.1372 45.9982V45.258C14.5152 45.258 14.0103 44.7008 14.0103 44.0149C14.0103 43.3289 14.5152 42.7717 15.1372 42.7717V42.0315ZM15.1372 41.8179C14.556 41.8179 14.0327 42.0925 13.6693 42.5299V42.2451H12.6869V42.6372C12.6869 42.757 12.5994 42.8554 12.4904 42.8565L12.4507 44.8873H12.3103L12.2706 42.8565C12.1616 42.8554 12.0741 42.757 12.0741 42.6372V42.2451H11.0917V42.5299C10.7283 42.0925 10.2051 41.8179 9.62378 41.8179V41.1817H15.1372V41.8179ZM15.1372 44.65C15.4548 44.65 15.7124 44.3652 15.7124 44.0149C15.7124 43.6645 15.4548 43.3797 15.1372 43.3797V44.65ZM15.1372 45.9982C16.1298 45.9982 16.935 45.1099 16.935 44.0149C16.935 42.9198 16.1298 42.0315 15.1372 42.0315V42.7717C15.7592 42.7717 16.2641 43.3289 16.2641 44.0149C16.2641 44.7008 15.7592 45.258 15.1372 45.258V45.9982ZM20.6497 43.3797C20.332 43.3797 20.0745 43.6645 20.0745 44.0149C20.0745 44.3652 20.332 44.65 20.6497 44.65V43.3797ZM20.6497 42.0315C19.6571 42.0315 18.8519 42.9198 18.8519 44.0149C18.8519 45.1099 19.6571 45.9982 20.6497 45.9982V45.258C20.0277 45.258 19.5238 44.7008 19.5238 44.0149C19.5238 43.3289 20.0277 42.7717 20.6497 42.7717V42.0315ZM20.6497 41.8179C20.0694 41.8179 19.5462 42.0925 19.1817 42.5299V42.2451H18.2004V42.6372C18.2004 42.757 18.1118 42.8554 18.0039 42.8565L17.9642 44.8873H17.8227L17.783 42.8565C17.6751 42.8554 17.5865 42.757 17.5865 42.6372V42.2451H16.6052V42.5299C16.2407 42.0925 15.7185 41.8179 15.1372 41.8179V41.1817H20.6497V41.8179ZM20.6497 44.65C20.9683 44.65 21.2258 44.3652 21.2258 44.0149C21.2258 43.6645 20.9683 43.3797 20.6497 43.3797V44.65ZM20.6497 45.9982C21.6432 45.9982 22.4474 45.1099 22.4474 44.0149C22.4474 42.9198 21.6432 42.0315 20.6497 42.0315V42.7717C21.2727 42.7717 21.7766 43.3289 21.7766 44.0149C21.7766 44.7008 21.2727 45.258 20.6497 45.258V45.9982ZM26.1631 43.3797C25.8455 43.3797 25.5879 43.6645 25.5879 44.0149C25.5879 44.3652 25.8455 44.65 26.1631 44.65V43.3797ZM26.1631 42.0315C25.1706 42.0315 24.3653 42.9198 24.3653 44.0149C24.3653 45.1099 25.1706 45.9982 26.1631 45.9982V45.258C25.5411 45.258 25.0362 44.7008 25.0362 44.0149C25.0362 43.3289 25.5411 42.7717 26.1631 42.7717V42.0315ZM26.1631 41.8179C25.5818 41.8179 25.0596 42.0925 24.6952 42.5299V42.2451H23.7138V42.6372C23.7138 42.757 23.6252 42.8554 23.5163 42.8565L23.4766 44.8873H23.3361L23.2964 42.8565C23.1885 42.8554 23.1 42.757 23.1 42.6372V42.2451H22.1176V42.5299C21.7542 42.0925 21.2309 41.8179 20.6497 41.8179V41.1817H26.1631V41.8179ZM26.1631 44.65C26.4807 44.65 26.7383 44.3652 26.7383 44.0149C26.7383 43.6645 26.4807 43.3797 26.1631 43.3797V44.65ZM26.1631 45.9982C27.1556 45.9982 27.9609 45.1099 27.9609 44.0149C27.9609 42.9198 27.1556 42.0315 26.1631 42.0315V42.7717C26.7851 42.7717 27.29 43.3289 27.29 44.0149C27.29 44.7008 26.7851 45.258 26.1631 45.258V45.9982ZM29.326 43.9131H29.0725V43.8024H29.0715V42.2451H27.631V42.5299C27.2666 42.0925 26.7444 41.8179 26.1631 41.8179V41.1817H29.326V42.444C29.211 42.444 29.1183 42.5468 29.1183 42.6745C29.1183 42.8011 29.211 42.904 29.326 42.904V43.9131ZM32.4462 43.9131H29.326V42.904C29.441 42.904 29.5347 42.8011 29.5347 42.6745C29.5347 42.5468 29.441 42.444 29.326 42.444V41.1817H32.4462V42.2451H29.5815V43.4724H32.4462V43.9131ZM35.5653 43.9131H32.4462V43.4724H35.3108V42.2451H32.4462V41.1817H35.5653V42.444C35.4502 42.444 35.3576 42.5468 35.3576 42.6745C35.3576 42.8011 35.4502 42.904 35.5653 42.904V43.9131ZM38.6854 43.9131H35.5653V42.904C35.6803 42.904 35.774 42.8011 35.774 42.6745C35.774 42.5468 35.6803 42.444 35.5653 42.444V41.1817H38.6854V42.2451H35.8208V43.4724H38.6854V43.9131ZM41.8046 43.9131H38.6854V43.4724H41.5501V42.2451H38.6854V41.1817H41.8046V42.444C41.6895 42.444 41.5969 42.5468 41.5969 42.6745C41.5969 42.8011 41.6895 42.904 41.8046 42.904V43.9131ZM44.9247 43.9131H41.8046V42.904C41.9196 42.904 42.0132 42.8011 42.0132 42.6745C42.0132 42.5468 41.9196 42.444 41.8046 42.444V41.1817H44.9247V42.2451H42.0601V43.4724H44.9247V43.9131ZM48.0438 43.9131H44.9247V43.4724H47.7893V42.2451H44.9247V41.1817H48.0438V42.444C47.9288 42.444 47.8362 42.5468 47.8362 42.6745C47.8362 42.8011 47.9288 42.904 48.0438 42.904V43.9131ZM56.2234 42.7186C55.8254 42.7186 55.5027 43.0746 55.5027 43.5142C55.5027 43.9527 55.8254 44.3087 56.2234 44.3087V42.7186ZM56.2234 41.0302C54.9794 41.0302 53.9716 42.1423 53.9716 43.5142C53.9716 44.8862 54.9794 45.9982 56.2234 45.9982V45.0704C55.4436 45.0704 54.8114 44.3731 54.8114 43.5142C54.8114 42.6542 55.4436 41.9569 56.2234 41.9569V41.0302ZM56.2234 40.7805C55.3927 40.7805 54.6567 41.2314 54.2078 41.923H53.9879V42.0349C53.9879 42.1558 53.8983 42.2541 53.7894 42.2541H53.597C53.4891 42.2541 53.3985 42.1558 53.3985 42.0349V40.1736H53.1643V41.4077H52.7378V40.1736H52.4925C52.2135 40.4019 51.9651 40.7308 51.733 41.1941L51.4429 44.5087H51.3218L51.5406 41.1941C51.7045 40.7782 51.902 40.4392 52.1351 40.1736H51.4938V39.2469L48.9855 39.934L48.9845 41.1817H49.2695V42.2451H48.2994V43.8024H48.2983V43.9131H48.0438V42.904C48.1589 42.904 48.2525 42.8011 48.2525 42.6745C48.2525 42.5468 48.1589 42.444 48.0438 42.444V41.1817H48.1996V39.248L51.8969 38.2841L52.0568 38.2422H56.2234V39.4492H53.1592V39.7385H56.2234V40.7805ZM56.2234 44.3087C56.6214 44.3087 56.9441 43.9527 56.9441 43.5142C56.9441 43.0746 56.6214 42.7186 56.2234 42.7186V44.3087ZM56.2234 45.9982C57.4664 45.9982 58.4752 44.8862 58.4752 43.5142C58.4752 42.1423 57.4664 41.0302 56.2234 41.0302V41.9569C57.0022 41.9569 57.6343 42.6542 57.6343 43.5142C57.6343 44.3731 57.0022 45.0704 56.2234 45.0704V45.9982ZM56.2234 38.2422H59.4739V39.4492H56.2234V38.2422ZM59.4739 43.582H58.7002C58.7012 43.5594 58.7012 43.5368 58.7012 43.5142C58.7012 42.0044 57.5916 40.7805 56.2234 40.7805V39.7385H59.4739V43.582ZM62.087 42.7186C61.689 42.7186 61.3663 43.0746 61.3663 43.5142C61.3663 43.9527 61.689 44.3087 62.087 44.3087V42.7186ZM62.087 41.0302C60.8431 41.0302 59.8352 42.1423 59.8352 43.5142C59.8352 44.8862 60.8431 45.9982 62.087 45.9982V45.0704C61.3073 45.0704 60.6751 44.3731 60.6751 43.5142C60.6751 42.6542 61.3073 41.9569 62.087 41.9569V41.0302ZM59.4739 38.2422H62.087V39.4492H59.4739V38.2422ZM62.087 40.7805C60.7178 40.7805 59.6092 42.0044 59.6092 43.5142C59.6092 43.5368 59.6092 43.5594 59.6092 43.582H59.4739V39.7385H62.087V40.7805ZM62.087 44.3087C62.4851 44.3087 62.8078 43.9527 62.8078 43.5142C62.8078 43.0746 62.4851 42.7186 62.087 42.7186V44.3087ZM62.087 45.9982C63.33 45.9982 64.3388 44.8862 64.3388 43.5142C64.3388 42.1423 63.33 41.0302 62.087 41.0302V41.9569C62.8658 41.9569 63.498 42.6542 63.498 43.5142C63.498 44.3731 62.8658 45.0704 62.087 45.0704V45.9982ZM66.1305 39.0797V39.9193C66.1305 39.9905 66.0989 40.0538 66.0511 40.0934H66.5489V42.5694H66.3738C66.2262 42.8407 66.2832 43.1221 66.3087 43.2159H66.3677V43.1175C66.3677 42.9785 66.442 42.8576 66.5489 42.8011V44.0081C66.442 43.9516 66.3677 43.8306 66.3677 43.6916V43.5933H66.2181C66.1743 43.5933 66.1386 43.5538 66.1386 43.5052V43.304C66.1386 43.2599 66.1682 43.2226 66.2069 43.217C66.1773 43.0927 66.1417 42.8316 66.2608 42.5694H65.4464C65.2825 42.5694 65.1481 42.4225 65.1481 42.2417V41.923H64.1027C63.6527 41.2314 62.9177 40.7805 62.087 40.7805V39.7385H63.272L63.2781 40.0764C64.5109 40.099 65.2734 40.8076 65.4678 42.3005H65.7885C65.7101 41.7931 65.6673 41.2551 65.4332 40.8031C64.8712 39.7182 64.3012 39.4797 63.272 39.4492H62.087V38.2422H64.8519V39.0797H66.1305ZM66.5489 40.0934H66.6202V39.7182H67.0375V38.7056C67.0375 38.4886 67.1984 38.3112 67.3959 38.3112H68.2642V42.5694H67.0956V42.7672H68.2642V44.042H67.0956V44.0612C67.0956 44.1335 67.0416 44.1923 66.9765 44.1923H66.9408C66.8757 44.1923 66.8217 44.1335 66.8217 44.0612V44.042H66.6853C66.6365 44.042 66.5906 44.0295 66.5489 44.0081V42.8011C66.5906 42.7796 66.6365 42.7672 66.6853 42.7672H66.8217V42.5694H66.5489V40.0934ZM68.2642 38.3112H69.555C69.7515 38.3112 69.9123 38.4886 69.9123 38.7056V39.7182H70.5181V35.7978C70.5181 35.5571 70.6972 35.3605 70.9161 35.3605H71.1512V31.6695C71.1512 31.4548 71.3202 31.4367 71.5289 31.4356V32.8505H71.2775V35.0644H71.5289V40.0798C71.2388 39.9736 71.1665 39.7464 71.1512 39.6018V40.1374H71.5289V43.4814H71.421V42.2417C71.421 42.4225 71.2877 42.5694 71.1238 42.5694H69.7067V42.7672H69.8431C70.0182 42.7672 70.1618 42.9243 70.1618 43.1175V43.6916C70.1618 43.8838 70.0182 44.042 69.8431 44.042H69.7067V44.0612C69.7067 44.1335 69.6528 44.1923 69.5876 44.1923H69.553C69.4868 44.1923 69.4339 44.1335 69.4339 44.0612V44.042H68.2642V42.7672H69.4339V42.5694H68.2642V38.3112ZM71.5289 31.4356C71.5605 31.4356 71.593 31.4356 71.6266 31.4356H73.4519V32.3386C73.1821 32.3487 73.0803 32.5612 73.0803 32.8437V34.3219C73.0844 34.5264 73.2453 34.5558 73.4519 34.5592V37.2647H73.3837C73.3074 37.2647 73.2453 37.3336 73.2453 37.4184V37.6354H73.1699C73.1251 37.6354 73.0895 37.6749 73.0895 37.7235V37.745C73.0895 37.7936 73.1251 37.832 73.1699 37.832H73.2453V38.0501C73.2453 38.1349 73.3074 38.2038 73.3837 38.2038H73.4519V43.4814H71.5289V40.1374H71.9076C71.7519 40.1374 71.6277 40.116 71.5289 40.0798V35.0644H72.0379C72.2558 35.0644 72.4349 34.8666 72.4349 34.6259V33.2878C72.4349 33.0471 72.2558 32.8505 72.0379 32.8505H71.5289V31.4356ZM76.6494 42.2394V41.367H76.6464L76.6494 41.3568V35.2192C76.6087 35.2814 76.5446 35.3266 76.4489 35.3266C76.3196 35.3266 75.6956 35.3277 75.493 35.3277C74.8761 35.3288 75.1082 34.5683 74.6542 34.5558C74.4058 34.549 73.8062 34.5615 73.5507 34.5592C73.516 34.5604 73.4835 34.5604 73.4519 34.5592V37.2647H73.6728C73.7502 37.2647 73.8123 37.3336 73.8123 37.4184V38.0501C73.8123 38.1349 73.7502 38.2038 73.6728 38.2038H73.4519V43.4814H76.287V43.2588L76.6494 43.3006V42.835L76.287 42.7921V42.1818L76.6494 42.2394ZM73.4519 31.4356H74.6877C74.6307 31.4017 74.5931 31.3361 74.5931 31.2616V31.1813C74.5931 31.0728 74.6735 30.9836 74.7722 30.9836H75.3169C75.436 30.9836 75.5327 31.0909 75.5327 31.222C75.5327 31.3147 75.4828 31.3972 75.4105 31.4356H76.3888C76.4825 31.4356 76.569 31.4695 76.6494 31.5283V31.9159C76.6006 31.934 76.5771 31.9701 76.6087 32.0425L76.6494 32.1374V34.5728C76.5721 34.0281 76.4326 33.1477 76.3695 32.8234C76.3135 32.5329 76.1231 32.3386 75.8432 32.3386H73.4519V31.4356ZM77.5911 34.3377C77.5738 34.3106 77.5564 34.2767 77.5371 34.2337L77.4384 34.0009L77.3101 33.6969C77.0882 33.1714 76.8439 32.5928 76.6494 32.1374V34.5728C76.682 34.7999 76.7034 34.9683 76.7034 35.0135C76.7054 35.0802 76.6891 35.1582 76.6494 35.2192V41.3568C76.8052 40.8969 77.0037 40.4912 77.2348 40.1374H77.2358C77.3467 39.9679 77.4659 39.8097 77.5911 39.6651V37.1935C77.5117 37.1619 77.4557 37.0771 77.4557 36.9788C77.4557 36.8805 77.5117 36.7957 77.5911 36.7629V35.1876C77.586 35.1887 77.5809 35.1887 77.5758 35.1887H77.4384V36.0747C77.4384 36.1131 77.4099 36.1459 77.3742 36.1459H77.3101V33.3274H77.3742C77.4099 33.3274 77.4384 33.359 77.4384 33.3986V34.6361H77.5758C77.5809 34.6361 77.586 34.6372 77.5911 34.6372V34.3377ZM76.6494 42.835L77.5911 42.9469V43.4125L76.6494 43.3006V42.835ZM77.5911 42.3898L76.6494 42.2394V41.367H77.3875C77.4506 41.2314 77.5188 41.1026 77.5911 40.9794V42.3898ZM76.6494 31.5283C76.8327 31.6627 76.9823 31.9227 77.1096 32.1939C77.2887 32.577 77.4424 32.959 77.5911 33.341V33.5715C77.4139 33.1127 77.2348 32.6539 77.02 32.1939C76.9742 32.0967 76.9253 31.9995 76.8734 31.9102C76.7899 31.9023 76.7034 31.8967 76.6494 31.9159V31.5283ZM77.5911 36.7629C77.6074 36.7562 77.6247 36.7516 77.642 36.7505V35.1717C77.6267 35.1808 77.6094 35.1864 77.5911 35.1876V36.7629ZM80.3559 42.7186C79.9579 42.7186 79.6362 43.0746 79.6362 43.5142C79.6362 43.9527 79.9579 44.3087 80.3559 44.3087V42.7186ZM80.3559 41.0302V41.9569C79.5772 41.9569 78.946 42.6542 78.946 43.5142C78.946 44.3731 79.5772 45.0704 80.3559 45.0704V45.9982C79.113 45.9982 78.1041 44.8862 78.1041 43.5142C78.1041 42.1423 79.113 41.0302 80.3559 41.0302ZM77.5911 42.9469L77.925 42.9865C77.8985 43.1356 77.8832 43.2893 77.8792 43.4464L77.5911 43.4125V42.9469ZM80.3559 40.7805V39.2537C79.3267 39.2175 78.2853 39.7928 77.5911 40.9794V42.3898L78.0675 42.4655C78.4401 41.4766 79.3247 40.7805 80.3559 40.7805ZM77.5911 33.341C77.7499 33.7501 77.9046 34.158 78.0787 34.566C78.2212 34.9028 78.6243 34.9694 78.9542 35.061C79.172 35.122 79.7024 35.2362 80.3559 35.3718V38.3756H80.3345C80.3172 38.3745 80.2989 38.3745 80.2806 38.3745C80.2582 38.3745 80.2348 38.3745 80.2124 38.3756C80.1849 38.3756 80.1574 38.3767 80.1299 38.3779C80.1065 38.379 80.0841 38.379 80.0607 38.3813C80.0414 38.3824 80.022 38.3835 80.0037 38.3858C79.9844 38.3869 79.966 38.388 79.9477 38.3903C79.9274 38.3926 79.908 38.3948 79.8877 38.3971C79.8703 38.3993 79.853 38.4005 79.8357 38.4027C79.8154 38.4061 79.794 38.4084 79.7747 38.4118C79.7573 38.4152 79.739 38.4174 79.7227 38.4208C79.7024 38.4242 79.682 38.4276 79.6627 38.431C79.6433 38.4344 79.626 38.4378 79.6077 38.4423C79.5884 38.4457 79.57 38.4491 79.5507 38.4536C79.5314 38.4581 79.51 38.4637 79.4906 38.4683C79.456 38.4762 79.4224 38.4852 79.3888 38.4943C79.3705 38.4999 79.3532 38.5044 79.3359 38.509C79.3145 38.5157 79.2952 38.5225 79.2748 38.5282C79.2575 38.5338 79.2412 38.5383 79.2249 38.544C79.2056 38.5508 79.1852 38.5575 79.1649 38.5655C79.1486 38.5711 79.1323 38.5768 79.117 38.5824C79.0957 38.5903 79.0753 38.5982 79.0549 38.6061C79.0397 38.6118 79.0234 38.6186 79.0071 38.6254C78.9877 38.6333 78.9674 38.6412 78.948 38.6502C78.9307 38.657 78.9145 38.6649 78.8982 38.6728C78.8788 38.6807 78.8595 38.6898 78.8412 38.6988C78.8239 38.7067 78.8076 38.7146 78.7903 38.7225C78.7577 38.7395 78.7241 38.7576 78.6905 38.7745C78.6722 38.7847 78.6549 38.7937 78.6376 38.8039C78.6182 38.8141 78.5999 38.8254 78.5806 38.8356C78.5643 38.8457 78.549 38.8548 78.5337 38.8638C78.5144 38.8751 78.4961 38.8864 78.4767 38.8977C78.4614 38.9079 78.4462 38.9181 78.4309 38.9271C78.4116 38.9395 78.3943 38.952 78.3759 38.9644C78.3596 38.9746 78.3444 38.9859 78.3281 38.996C78.3108 39.0085 78.2925 39.022 78.2752 39.0345C78.2599 39.0458 78.2446 39.0571 78.2283 39.0684C78.211 39.0819 78.1937 39.0944 78.1764 39.1079C78.1591 39.1203 78.1438 39.1339 78.1286 39.1463C78.1113 39.1599 78.095 39.1723 78.0787 39.1859C77.9077 39.3272 77.7448 39.4865 77.5911 39.6651V37.1935C77.6135 37.2037 77.6379 37.2082 77.6633 37.2082C77.7784 37.2082 77.872 37.1054 77.872 36.9788C77.872 36.8601 77.7896 36.7618 77.6857 36.7505V35.1378C77.7122 35.1073 77.7285 35.0655 77.7285 35.0203V34.8056C77.7285 34.7174 77.6684 34.6462 77.5911 34.6372V34.3377C77.6705 34.4575 77.7519 34.4213 77.9331 34.4349C77.814 34.1467 77.702 33.8586 77.5911 33.5715V33.341ZM80.3559 44.3087V42.7186H80.3569C80.755 42.7186 81.0777 43.0746 81.0777 43.5142C81.0777 43.9527 80.755 44.3087 80.3569 44.3087H80.3559ZM82.1242 41.975C81.7119 41.3998 81.0726 41.0302 80.3569 41.0302H80.3559V41.9569H80.3569C81.1357 41.9569 81.7679 42.6542 81.7679 43.5142C81.7679 44.3731 81.1357 45.0704 80.3569 45.0704H80.3559V45.9982H80.3569C81.0726 45.9982 81.7119 45.6286 82.1242 45.0534V41.975ZM82.1242 41.5987C81.6742 41.0935 81.0492 40.7805 80.3569 40.7805H80.3559V39.2537C80.9749 39.2752 81.5897 39.517 82.1242 39.9781V41.5987ZM80.3559 35.3718C80.8965 35.4837 81.5226 35.6091 82.1242 35.7311V37.5608L81.4564 38.5971L81.1724 39.0401L81.2355 39.0638L81.5195 38.622L82.1242 37.684V38.9407C82.1099 38.9305 82.0957 38.9214 82.0804 38.9124L82.0407 38.8875C82.0203 38.874 81.999 38.8615 81.9786 38.8491L81.9338 38.8243C81.9124 38.8118 81.8921 38.8005 81.8707 38.7881C81.8565 38.7813 81.8422 38.7734 81.8279 38.7655C81.8035 38.7531 81.7781 38.7395 81.7526 38.7271C81.7424 38.7225 81.7323 38.7169 81.7221 38.7124C81.6875 38.6943 81.6518 38.6785 81.6162 38.6626C81.605 38.6581 81.5938 38.6536 81.5826 38.648C81.5612 38.6389 81.5409 38.6299 81.5195 38.622L81.5063 38.6163C81.492 38.6107 81.4767 38.605 81.4615 38.5994L81.4564 38.5971C81.4381 38.5903 81.4187 38.5824 81.3984 38.5745C81.3821 38.5689 81.3658 38.5632 81.3485 38.5575C81.3281 38.5508 81.3067 38.5429 81.2864 38.5361C81.2701 38.5316 81.2538 38.5259 81.2375 38.5214C81.2161 38.5146 81.1948 38.5078 81.1724 38.5022C81.1561 38.4977 81.1418 38.4931 81.1255 38.4886C81.1031 38.483 81.0797 38.4773 81.0573 38.4717C81.0421 38.4671 81.0278 38.4637 81.0125 38.4604C80.98 38.4524 80.9494 38.4457 80.9168 38.4389C80.9006 38.4355 80.8843 38.4332 80.868 38.4298C80.8415 38.4253 80.8161 38.4208 80.7906 38.4163C80.7753 38.414 80.7601 38.4118 80.7438 38.4095C80.7224 38.4061 80.7 38.4027 80.6776 38.4005C80.6603 38.3982 80.644 38.3959 80.6267 38.3948C80.6064 38.3914 80.585 38.3903 80.5636 38.388C80.5463 38.3858 80.529 38.3846 80.5107 38.3835C80.4903 38.3824 80.4699 38.3813 80.4486 38.379C80.4313 38.379 80.414 38.3779 80.3967 38.3767C80.3834 38.3767 80.3702 38.3756 80.3559 38.3756V35.3718ZM82.1242 45.0534V41.975C82.4275 42.3977 82.6087 42.9322 82.6087 43.5142C82.6087 44.0951 82.4275 44.6296 82.1242 45.0534ZM83.753 43.3503V41.367H83.1473C82.8714 40.7827 82.5202 40.3205 82.1242 39.9781V41.5987C82.4225 41.9332 82.6434 42.3525 82.7543 42.8203H83.1473V43.3503H83.753ZM82.1242 35.7311L82.6169 35.8306L82.7838 35.8645L82.905 35.8894L82.9905 35.9074C83.2694 35.9639 83.527 36.0182 83.753 36.0657V39.1396L83.7072 39.1362L83.6186 40.3589L83.753 40.3714V41.0076C83.7418 40.9782 83.7285 40.9489 83.7163 40.9195L83.6909 40.863C83.6787 40.8336 83.6654 40.8053 83.6522 40.776C83.644 40.7579 83.6359 40.7409 83.6267 40.7228C83.6125 40.6923 83.5982 40.6629 83.583 40.6336C83.5748 40.6177 83.5677 40.6019 83.5596 40.5861C83.5402 40.5488 83.5199 40.5115 83.5005 40.4753L83.4903 40.455C83.4659 40.4121 83.4415 40.3702 83.417 40.3284C83.4099 40.316 83.4028 40.3036 83.3946 40.2911C83.3773 40.2618 83.36 40.2335 83.3417 40.2052C83.3325 40.1906 83.3234 40.1759 83.3132 40.1612C83.2969 40.1352 83.2806 40.1103 83.2633 40.0855C83.2531 40.0696 83.243 40.0549 83.2318 40.0391C83.2165 40.0165 83.2002 39.9928 83.1839 39.9702C83.1727 39.9555 83.1615 39.9397 83.1503 39.9239C83.132 39.9001 83.1147 39.8764 83.0953 39.8527C83.0862 39.8402 83.077 39.8278 83.0679 39.8154C83.0444 39.786 83.02 39.7566 82.9966 39.7272L82.9813 39.7103C82.9528 39.6752 82.9233 39.6413 82.8938 39.6074C82.8856 39.5995 82.8785 39.5905 82.8704 39.5826C82.848 39.5577 82.8266 39.534 82.8042 39.5114C82.793 39.4989 82.7808 39.4865 82.7696 39.4752C82.7503 39.456 82.7309 39.4368 82.7126 39.4176L82.6739 39.3803C82.6556 39.3622 82.6362 39.3452 82.6179 39.3272C82.6047 39.3147 82.5914 39.3034 82.5792 39.291C82.5599 39.274 82.5405 39.2571 82.5212 39.2413C82.508 39.23 82.4958 39.2187 82.4815 39.2074C82.4601 39.1882 82.4377 39.1712 82.4153 39.1531C82.4052 39.1441 82.395 39.1362 82.3838 39.1271C82.3522 39.1023 82.3196 39.0774 82.2871 39.0537C82.2759 39.0458 82.2667 39.039 82.2565 39.0311C82.2331 39.0141 82.2087 38.9972 82.1853 38.9813C82.173 38.9723 82.1598 38.9644 82.1476 38.9565L82.1242 38.9407V37.684L82.905 36.4702V39.2593H82.9905V34.8474C83.0414 34.8203 83.076 34.7626 83.076 34.6971V34.5954C83.076 34.5027 83.0078 34.427 82.9233 34.427H82.7838V33.8687C82.7838 33.8179 82.7462 33.7772 82.7004 33.7772H82.6169V35.9504H82.7004C82.7441 35.9504 82.7808 35.9131 82.7838 35.8645V34.8655H82.905V36.3459L82.1242 37.5608V35.7311ZM83.9841 43.3503H83.753V41.367H83.8884C83.87 41.315 83.8527 41.2642 83.8344 41.2144L83.8151 41.167C83.8028 41.1331 83.7896 41.098 83.7774 41.0653L83.754 41.0099L83.753 41.0076V40.3714L83.9311 40.3872C83.9484 40.3883 83.9668 40.3883 83.9841 40.3872V43.3503ZM83.753 36.0657C83.8344 36.0837 83.9118 36.0996 83.9841 36.1154V39.1599L83.753 39.1396V36.0657ZM83.9841 36.1154C84.2742 36.1787 84.4849 36.2284 84.5755 36.2578C85.1853 36.4522 85.4398 36.8353 85.4948 37.3223C85.509 37.4512 85.5049 37.58 85.5049 37.71V41.367H85.5589V42.3005H85.3645V42.9966H85.5589V43.3503H83.9841V40.3872C84.1581 40.3748 84.3027 40.2211 84.3169 40.0244L84.3485 39.5882C84.3638 39.3712 84.2162 39.1802 84.0197 39.1633L83.9841 39.1599V36.1154ZM85.5589 41.367H85.6627C85.7717 41.367 85.8612 41.4653 85.8612 41.5862V43.1311C85.8612 43.2509 85.7717 43.3503 85.6627 43.3503H85.5589V42.9966H85.7533V42.3005H85.5589V41.367Z" fill="#040606"/>
</g>
<mask id="mask2_2023_8724" style="mask-type:luminance" maskUnits="userSpaceOnUse" x="11" y="9" width="46" height="31">
<path d="M11.9102 9.75781H56.7609V39.8402H11.9102V9.75781Z" fill="white"/>
</mask>
<g mask="url(#mask2_2023_8724)">
<path d="M11.9102 39.8608L38.268 15.2639L20.1946 10.0044H56.767L11.9102 39.8608Z" fill="#242424"/>
</g>
<path d="M50.0259 29.721L34.4883 27.68L42.5192 22.3301L50.0259 29.721Z" fill="#242424"/>
<mask id="mask3_2023_8724" style="mask-type:luminance" maskUnits="userSpaceOnUse" x="44" y="0" width="7" height="8">
<path d="M44.3008 0.611816H50.8159V7.73264H44.3008V0.611816Z" fill="white"/>
</mask>
<g mask="url(#mask3_2023_8724)">
<path d="M44.418 0.63916H50.6522V7.55882H44.418V0.63916Z" fill="#242424"/>
</g>
<mask id="mask4_2023_8724" style="mask-type:luminance" maskUnits="userSpaceOnUse" x="11" y="25" width="51" height="20">
<path d="M61.2395 25.0913H11.2031V44.1856H61.2395V25.0913Z" fill="white"/>
</mask>
<g mask="url(#mask4_2023_8724)">
<path d="M17.7209 34.2609C17.897 34.096 18.011 33.8925 18.0629 33.6507C18.1169 33.41 18.0874 33.2099 17.9734 33.0495C17.8614 32.8901 17.7016 32.8099 17.4929 32.8099H16.7355L17.1671 30.7124H18.5882C19.4698 30.7124 20.1 30.9836 20.4776 31.5261C20.8543 32.0685 20.9632 32.7364 20.8034 33.5286C20.6833 34.0926 20.4389 34.6022 20.0704 35.0565C19.7009 35.5086 19.2357 35.842 18.6737 36.0556L19.7202 39.9025H16.7355L15.9659 36.5483L16.3853 34.5051H17.1468C17.3524 34.5051 17.5438 34.4237 17.7209 34.2609ZM13.8729 39.9025H11.6211L13.5227 30.7124H15.7745L13.8729 39.9025Z" fill="#242424"/>
<path d="M31.1371 30.7124L29.9929 36.2002C29.7292 37.4569 29.1724 38.4152 28.3234 39.0752C27.4734 39.7329 26.3902 40.0607 25.074 40.0607C25.0495 40.0607 25.0251 40.0607 25.0007 40.0607L25.4567 37.8592C25.4812 37.8592 25.5015 37.8592 25.5178 37.8592C25.9922 37.8592 26.3872 37.7044 26.7027 37.3936C27.0204 37.0806 27.2341 36.6703 27.3461 36.1641L28.4781 30.7124H31.1371ZM23.6406 39.8889C22.8313 39.6753 22.2612 39.256 21.9304 38.6322C21.6016 38.0084 21.5415 37.1981 21.7512 36.2002L22.8955 30.7124H25.5544L23.6406 39.8889Z" fill="#242424"/>
<path d="M41.1472 30.7124L39.2456 39.9025H36.9246L35.3976 37.2309L36.3341 32.6878L37.7674 35.2419L38.704 30.7124H41.1472ZM34.3755 35.4408L33.4471 39.9025H31.0039L32.9055 30.7124H35.2265L35.3243 30.8706L34.3755 35.4408Z" fill="#242424"/>
</g>
<mask id="mask5_2023_8724" style="mask-type:luminance" maskUnits="userSpaceOnUse" x="48" y="13" width="20" height="32">
<path d="M67.2363 13.2295H48.4727V44.4748H67.2363V13.2295Z" fill="white"/>
</mask>
<g mask="url(#mask5_2023_8724)">
<mask id="mask6_2023_8724" style="mask-type:luminance" maskUnits="userSpaceOnUse" x="48" y="22" width="20" height="16">
<path d="M48.9922 22.1982H67.1613V37.5316H48.9922V22.1982Z" fill="white"/>
</mask>
<g mask="url(#mask6_2023_8724)">
<path d="M67.0206 22.4702L61.1895 29.5311L64.3819 37.4148H59.1372L57.6103 32.7678H57.5329L54.088 37.4148H49.2383L55.6924 29.5085L52.7972 22.4702H58.0215L59.2757 26.2945H59.3531L62.1912 22.4702H67.0206Z" fill="#242424"/>
</g>
</g>
</g>
</svg>
