<svg width="148" height="71" viewBox="0 0 148 71" fill="none" xmlns="http://www.w3.org/2000/svg">
<mask id="mask0_2023_12950" style="mask-type:luminance" maskUnits="userSpaceOnUse" x="0" y="46" width="148" height="25">
<path d="M0 46.2993H148V71H0V46.2993Z" fill="white"/>
</mask>
<g mask="url(#mask0_2023_12950)">
<path fill-rule="evenodd" clip-rule="evenodd" d="M0.680554 67.8873L0.391917 67.9596V67.4214C0.16136 67.3138 -0.0163974 67.0791 0.00120256 66.7156L0.680554 52.486V66.4315C0.488716 66.4315 0.332078 66.5868 0.332078 66.7809C0.332078 66.9732 0.488716 67.1285 0.680554 67.1285V67.8873ZM6.17872 66.5092L0.680554 67.8873V67.1285C0.872391 67.1285 1.02903 66.9732 1.02903 66.7809C1.02903 66.5868 0.872391 66.4315 0.680554 66.4315V52.486L0.97623 46.2993L1.31943 46.3558V54.8717L4.32019 57.4356L4.43635 57.2998L6.17872 58.7908V59.6943L3.99107 57.8203L4.09843 57.695L1.31943 55.3217L1.31767 66.0592L6.17872 64.8416V66.5092ZM16.332 66.8903C15.7829 66.8903 15.3376 67.335 15.3376 67.8855C15.3376 68.4361 15.7829 68.8825 16.332 68.8825V66.8903ZM16.332 64.7728C14.6178 64.7728 13.2274 66.1668 13.2274 67.8855C13.2274 69.606 14.6178 70.9983 16.332 70.9983V69.8372C15.2567 69.8372 14.3855 68.9637 14.3855 67.8855C14.3855 66.8091 15.2567 65.9357 16.332 65.9357V64.7728ZM16.332 64.4375C15.3288 64.4375 14.426 64.8681 13.7959 65.5563V65.1081H12.8508V65.7239C12.8508 65.9127 12.6977 66.0662 12.5111 66.068L12.4425 69.2549H12.1996L12.131 66.068C11.9426 66.0662 11.7913 65.9127 11.7913 65.7239V65.1081H11.7737L6.17872 66.5092V64.8416L11.038 63.6241L7.60782 60.6931L7.49694 60.8236L6.17872 59.6943V58.7908L7.94222 60.3013L7.82958 60.4337L11.4463 63.5217L11.7807 63.437H16.332V64.4375ZM16.332 68.8825C16.8811 68.8825 17.3264 68.4361 17.3264 67.8855C17.3264 67.335 16.8811 66.8903 16.332 66.8903V68.8825ZM16.332 70.9983C18.0462 70.9983 19.4366 69.606 19.4366 67.8855C19.4366 66.1668 18.0462 64.7728 16.332 64.7728V65.9357C17.4056 65.9357 18.2768 66.8091 18.2768 67.8855C18.2768 68.9637 17.4056 69.8372 16.332 69.8372V70.9983ZM25.8535 66.8903C25.3044 66.8903 24.8591 67.335 24.8591 67.8855C24.8591 68.4361 25.3044 68.8825 25.8535 68.8825V66.8903ZM25.8535 64.7728C24.1375 64.7728 22.7489 66.1668 22.7489 67.8855C22.7489 69.606 24.1375 70.9983 25.8535 70.9983V69.8372C24.7782 69.8372 23.907 68.9637 23.907 67.8855C23.907 66.8091 24.7782 65.9357 25.8535 65.9357V64.7728ZM25.8535 64.4375C24.8503 64.4375 23.9475 64.8681 23.3174 65.5563V65.1081H21.6225V65.7239C21.6225 65.9127 21.4694 66.0662 21.2828 66.068L21.2142 69.2549H20.9713L20.9027 66.068C20.7144 66.0662 20.563 65.9127 20.563 65.7239V65.1081H18.8664V65.5545C18.2381 64.8681 17.3352 64.4375 16.332 64.4375V63.437H25.8535V64.4375ZM25.8535 68.8825C26.4026 68.8825 26.8479 68.4361 26.8479 67.8855C26.8479 67.335 26.4026 66.8903 25.8535 66.8903V68.8825ZM25.8535 70.9983C27.5677 70.9983 28.9581 69.606 28.9581 67.8855C28.9581 66.1668 27.5677 64.7728 25.8535 64.7728V65.9357C26.9271 65.9357 27.7983 66.8091 27.7983 67.8855C27.7983 68.9637 26.9271 69.8372 25.8535 69.8372V70.9983ZM35.375 66.8903C34.8259 66.8903 34.3806 67.335 34.3806 67.8855C34.3806 68.4361 34.8259 68.8825 35.375 68.8825V66.8903ZM35.375 64.7728C33.659 64.7728 32.2704 66.1668 32.2704 67.8855C32.2704 69.606 33.659 70.9983 35.375 70.9983V69.8372C34.2996 69.8372 33.4285 68.9637 33.4285 67.8855C33.4285 66.8091 34.2996 65.9357 35.375 65.9357V64.7728ZM35.375 64.4375C34.3718 64.4375 33.4672 64.8681 32.8389 65.5563V65.1081H31.144V65.7239C31.144 65.9127 30.9909 66.0662 30.8043 66.068L30.7357 69.2549H30.4928L30.4242 66.068C30.2359 66.0662 30.0845 65.9127 30.0845 65.7239V65.1081H28.3879V65.5563C27.7596 64.8681 26.8567 64.4375 25.8535 64.4375V63.437H35.375V64.4375ZM35.375 68.8825C35.9241 68.8825 36.3676 68.4361 36.3676 67.8855C36.3676 67.335 35.9241 66.8903 35.375 66.8903V68.8825ZM35.375 70.9983C37.0892 70.9983 38.4796 69.606 38.4796 67.8855C38.4796 66.1668 37.0892 64.7728 35.375 64.7728V65.9357C36.4486 65.9357 37.3198 66.8091 37.3198 67.8855C37.3198 68.9637 36.4486 69.8372 35.375 69.8372V70.9983ZM44.8965 66.8903C44.3473 66.8903 43.9021 67.335 43.9021 67.8855C43.9021 68.4361 44.3473 68.8825 44.8965 68.8825V66.8903ZM44.8965 64.7728C43.1805 64.7728 41.7901 66.1668 41.7901 67.8855C41.7901 69.606 43.1805 70.9983 44.8965 70.9983V69.8372C43.8211 69.8372 42.9499 68.9637 42.9499 67.8855C42.9499 66.8091 43.8211 65.9357 44.8965 65.9357V64.7728ZM44.8965 64.4375C43.8915 64.4375 42.9886 64.8681 42.3603 65.5563V65.1081H40.6655V65.7239C40.6655 65.9127 40.5124 66.0662 40.3258 66.068L40.2572 69.2549H40.0143L39.9456 66.068C39.7573 66.0662 39.606 65.9127 39.606 65.7239V65.1081H37.9094V65.5563C37.281 64.8681 36.3782 64.4375 35.375 64.4375V63.437H44.8965V64.4375ZM44.8965 68.8825C45.4456 68.8825 45.8891 68.4361 45.8891 67.8855C45.8891 67.335 45.4456 66.8903 44.8965 66.8903V68.8825ZM44.8965 70.9983C46.6107 70.9983 48.0011 69.606 48.0011 67.8855C48.0011 66.1668 46.6107 64.7728 44.8965 64.7728V65.9357C45.97 65.9357 46.8412 66.8091 46.8412 67.8855C46.8412 68.9637 45.97 69.8372 44.8965 69.8372V70.9983ZM50.3594 67.7267H49.9194V67.552H49.9177V65.1081H47.4308V65.5563C46.8025 64.8681 45.8996 64.4375 44.8965 64.4375V63.437H50.3594V65.4204C50.1606 65.4204 49.9986 65.5827 49.9986 65.7821C49.9986 65.9815 50.1606 66.1421 50.3594 66.1421V67.7267ZM55.7467 67.7267H50.3594V66.1421C50.5583 66.1421 50.7185 65.9815 50.7185 65.7821C50.7185 65.5827 50.5583 65.4204 50.3594 65.4204V63.437H55.7467V65.1081H50.7994V67.035H55.7467V67.7267ZM61.134 67.7267H55.7467V67.035H60.694V65.1081H55.7467V63.437H61.134V65.4204C60.9369 65.4204 60.775 65.5827 60.775 65.7821C60.775 65.9815 60.9369 66.1421 61.134 66.1421V67.7267ZM66.5231 67.7267H61.134V66.1421C61.3329 66.1421 61.4948 65.9815 61.4948 65.7821C61.4948 65.5827 61.3329 65.4204 61.134 65.4204V63.437H66.5231V65.1081H61.5758V67.035H66.5231V67.7267ZM71.9104 67.7267H66.5231V67.035H71.4704V65.1081H66.5231V63.437H71.9104V65.4204C71.7115 65.4204 71.5513 65.5827 71.5513 65.7821C71.5513 65.9815 71.7115 66.1421 71.9104 66.1421V67.7267ZM77.2994 67.7267H71.9104V66.1421C72.1092 66.1421 72.2711 65.9815 72.2711 65.7821C72.2711 65.5827 72.1092 65.4204 71.9104 65.4204V63.437H77.2994V65.1081H72.3521V67.035H77.2994V67.7267ZM82.6867 67.7267H77.2994V67.035H82.2467V65.1081H77.2994V63.437H82.6867V65.4204C82.4878 65.4204 82.3259 65.5827 82.3259 65.7821C82.3259 65.9815 82.4878 66.1421 82.6867 66.1421V67.7267ZM96.8123 65.851C96.1241 65.851 95.568 66.4103 95.568 67.1003C95.568 67.7885 96.1241 68.3479 96.8123 68.3479V65.851ZM96.8123 63.2006C94.6633 63.2006 92.9227 64.9457 92.9227 67.1003C92.9227 69.2531 94.6633 70.9983 96.8123 70.9983V69.5442C95.4659 69.5442 94.3747 68.4502 94.3747 67.1003C94.3747 65.7504 95.4659 64.6563 96.8123 64.6563V63.2006ZM96.8123 62.8088C95.3779 62.8088 94.1072 63.5164 93.331 64.6034H92.9509V64.7781C92.9509 64.9669 92.796 65.1222 92.6077 65.1222H92.2768C92.0885 65.1222 91.9336 64.9687 91.9336 64.7781V61.8559H91.5306V63.7935H90.7931V61.8559H90.369C89.8868 62.2141 89.4573 62.7312 89.056 63.4582L88.5562 68.662H88.3485L88.7252 63.4582C89.0085 62.8053 89.3482 62.2724 89.7512 61.8559H88.6442V60.4019L84.3111 61.4801V63.437H84.8022V65.1081H83.1267V67.552H83.1249V67.7267H82.6867V66.1421C82.8856 66.1421 83.0457 65.9815 83.0457 65.7821C83.0457 65.5827 82.8856 65.4204 82.6867 65.4204V63.437H82.956V60.4019L89.3412 58.8897L89.6157 58.8244H96.8123V60.7195H91.5218V61.173H96.8123V62.8088ZM96.8123 68.3479C97.4987 68.3479 98.0566 67.7885 98.0566 67.1003C98.0566 66.4103 97.4987 65.851 96.8123 65.851V68.3479ZM96.8123 70.9983C98.9594 70.9983 100.7 69.2531 100.7 67.1003C100.7 64.9457 98.9594 63.2006 96.8123 63.2006V64.6563C98.1587 64.6563 99.2498 65.7504 99.2498 67.1003C99.2498 68.4502 98.1587 69.5425 96.8123 69.5442V70.9983ZM96.8123 58.8244H102.427V60.7195H96.8123V58.8244ZM102.427 67.2062H101.091C101.091 67.1709 101.091 67.1356 101.091 67.1003C101.091 64.7304 99.1759 62.8088 96.8123 62.8088V61.173H102.427V67.2062ZM106.939 65.851C106.251 65.8527 105.695 66.4103 105.695 67.1003C105.695 67.7885 106.251 68.3479 106.939 68.3479V65.851ZM106.939 63.2006C104.792 63.2006 103.05 64.9457 103.05 67.1003C103.05 69.2531 104.792 70.9983 106.939 70.9983V69.5442C105.593 69.5442 104.502 68.4502 104.502 67.1003C104.502 65.7504 105.593 64.6563 106.939 64.6563V63.2006ZM102.427 58.8244H106.939V60.7195H102.427V58.8244ZM106.939 62.8088C104.576 62.8088 102.659 64.7304 102.659 67.1003C102.659 67.1356 102.659 67.1709 102.661 67.2062H102.427V61.173H106.939V62.8088ZM106.939 68.3479C107.627 68.3479 108.183 67.7885 108.183 67.1003C108.183 66.4103 107.627 65.851 106.939 65.851V68.3479ZM106.939 70.9983C109.086 70.9983 110.829 69.2531 110.829 67.1003C110.829 64.9457 109.086 63.2006 106.939 63.2006V64.6563C108.286 64.6563 109.377 65.7504 109.377 67.1003C109.377 68.4502 108.286 69.5442 106.939 69.5442V70.9983ZM113.923 60.139V61.4554C113.923 61.5683 113.868 61.6689 113.785 61.7306H114.646V65.618H114.342C114.088 66.0433 114.187 66.4844 114.231 66.6327H114.333V66.4774C114.333 66.2586 114.461 66.0698 114.646 65.9815V67.8749C114.461 67.7867 114.333 67.5961 114.333 67.3791V67.2238H114.074C113.998 67.2238 113.937 67.1621 113.937 67.0862V66.7703C113.937 66.7015 113.988 66.6433 114.055 66.6344C114.004 66.4386 113.942 66.0292 114.148 65.618H112.742C112.458 65.618 112.228 65.3851 112.228 65.1028V64.6034H110.42C109.643 63.5164 108.374 62.8088 106.939 62.8088V61.173H108.986L108.997 61.7042C111.124 61.7395 112.443 62.8512 112.779 65.1945H113.333C113.198 64.3987 113.122 63.5535 112.719 62.8441C111.747 61.1413 110.764 60.7654 108.986 60.7195H106.939V58.8244H111.716V60.139H113.923ZM114.646 61.7306H114.768V61.1413H115.489V59.5514C115.489 59.2108 115.767 58.932 116.107 58.932H117.608V65.618H115.589V65.9268H117.608V67.9296H115.589V67.9596C115.589 68.0726 115.496 68.1661 115.384 68.1661H115.324C115.209 68.1661 115.118 68.0726 115.118 67.9596V67.9296H114.882C114.797 67.9296 114.717 67.9102 114.646 67.8749V65.9815C114.717 65.9463 114.797 65.9268 114.882 65.9268H115.118V65.618H114.646V61.7306ZM117.608 58.932H119.836C120.176 58.932 120.454 59.2108 120.454 59.5514V61.1413H121.501V54.9882C121.501 54.6088 121.809 54.3 122.188 54.3H122.594V48.5068C122.594 48.168 122.885 48.1398 123.247 48.138V50.3596H122.812V53.8359H123.247V61.7095C122.746 61.5418 122.621 61.1854 122.594 60.9578V61.7995H123.247V67.0491H123.061V65.1028C123.061 65.3851 122.828 65.618 122.547 65.618H120.099V65.9268H120.336C120.637 65.9268 120.883 66.1739 120.883 66.4774V67.3791C120.883 67.6808 120.637 67.9296 120.336 67.9296H120.099V67.9596C120.099 68.0726 120.007 68.1661 119.894 68.1661H119.833C119.72 68.1661 119.627 68.0726 119.627 67.9596V67.9296H117.608V65.9268H119.627V65.618H117.608V58.932ZM123.247 48.138C123.302 48.138 123.356 48.138 123.414 48.138H126.566V49.5567C126.102 49.5726 125.926 49.9061 125.926 50.349V52.6712C125.933 52.9906 126.211 53.0383 126.566 53.0436V57.2892H126.45C126.318 57.2892 126.211 57.3968 126.211 57.5309V57.8715H126.081C126.003 57.8715 125.942 57.9333 125.942 58.0091V58.0427C125.942 58.1185 126.003 58.1803 126.081 58.1803H126.211V58.5226C126.211 58.655 126.318 58.7626 126.45 58.7626H126.566V67.0491H123.247V61.7995H123.9C123.631 61.7995 123.418 61.7659 123.247 61.7095V53.8359H124.125C124.502 53.8359 124.812 53.5253 124.812 53.1477V51.0478C124.812 50.6684 124.502 50.3596 124.125 50.3596H123.247V48.138ZM132.091 65.0992V63.7299H132.084L132.091 63.714V54.0794C132.021 54.1764 131.91 54.247 131.743 54.247C131.521 54.247 130.444 54.2488 130.092 54.2488C129.027 54.2506 129.428 53.0577 128.643 53.0383C128.216 53.0277 127.181 53.0453 126.737 53.0436C126.679 53.0436 126.623 53.0436 126.566 53.0436V57.2892H126.95C127.082 57.2892 127.189 57.3968 127.189 57.5309V58.5226C127.189 58.655 127.082 58.7626 126.95 58.7626H126.566V67.0491H131.463V66.698L132.091 66.765V66.0345L131.463 65.9657V65.0093L132.091 65.0992ZM126.566 48.138H128.701C128.604 48.0851 128.539 47.9827 128.539 47.8663V47.7392C128.539 47.5698 128.678 47.4304 128.847 47.4304H129.789C129.993 47.4304 130.162 47.5981 130.162 47.8027C130.162 47.9492 130.076 48.078 129.951 48.138H131.64C131.802 48.138 131.95 48.1927 132.091 48.2845V48.8933C132.005 48.9197 131.966 48.9797 132.021 49.0927L132.091 49.2409V53.063C131.955 52.2089 131.714 50.8273 131.605 50.3173C131.51 49.8603 131.181 49.5567 130.699 49.5567H126.566V48.138ZM133.715 52.6942C133.686 52.6536 133.656 52.6007 133.624 52.5318L133.453 52.1666L133.231 51.6884C132.848 50.8643 132.425 49.9555 132.091 49.2409V53.063C132.146 53.4194 132.183 53.6841 132.184 53.7547C132.186 53.8606 132.16 53.9823 132.091 54.0794V63.714C132.359 62.9923 132.702 62.3553 133.101 61.7995H133.103C133.295 61.533 133.499 61.286 133.715 61.0583V57.178C133.58 57.1268 133.481 56.9963 133.481 56.841C133.481 56.6857 133.58 56.5533 133.715 56.5022V54.03C133.708 54.03 133.7 54.0317 133.691 54.0317H133.453V55.4205C133.453 55.4822 133.404 55.5334 133.342 55.5334H133.231V51.1078H133.342C133.404 51.1078 133.453 51.159 133.453 51.219V53.1636H133.691C133.7 53.1636 133.708 53.1636 133.715 53.1653V52.6942ZM132.091 66.0345L133.715 66.2092V66.9415L132.091 66.765V66.0345ZM133.715 65.3357L132.091 65.0992V63.7299H133.363C133.474 63.5164 133.592 63.3135 133.715 63.1211V65.3357ZM132.091 48.2845C132.406 48.4945 132.665 48.9038 132.885 49.3309C133.195 49.9308 133.459 50.5308 133.715 51.1308V51.4907C133.409 50.7725 133.101 50.0526 132.73 49.3309C132.651 49.1756 132.566 49.0238 132.476 48.8844C132.332 48.8703 132.183 48.8633 132.091 48.8933V48.2845ZM133.715 56.5022C133.745 56.4916 133.774 56.4845 133.805 56.481V54.0053C133.777 54.0176 133.747 54.0265 133.715 54.03V56.5022ZM138.492 65.851C137.804 65.8527 137.248 66.4103 137.248 67.1003C137.248 67.7885 137.804 68.3479 138.492 68.3479V65.851ZM138.492 63.2006V64.6563C137.147 64.6563 136.056 65.7504 136.056 67.1003C136.056 68.4502 137.147 69.5425 138.492 69.5442V70.9983C136.345 70.9983 134.602 69.2531 134.602 67.1003C134.602 64.9457 136.345 63.2006 138.492 63.2006ZM133.715 66.2092L134.293 66.2709C134.247 66.5056 134.221 66.7474 134.214 66.9944L133.715 66.9415V66.2092ZM138.492 62.8088V60.4125C136.713 60.356 134.916 61.2577 133.715 63.1211V65.3357L134.539 65.4539C135.183 63.9011 136.711 62.8088 138.492 62.8088ZM133.715 51.1308C133.992 51.7713 134.258 52.4119 134.557 53.0524C134.805 53.5818 135.502 53.6877 136.07 53.8306C136.445 53.9259 137.362 54.1059 138.492 54.3176V59.0344L138.455 59.0326C138.423 59.0326 138.393 59.0308 138.362 59.0308C138.321 59.0308 138.283 59.0326 138.244 59.0326C138.196 59.0344 138.149 59.0344 138.1 59.0361C138.061 59.0379 138.022 59.0396 137.98 59.0414C137.948 59.0432 137.915 59.0467 137.883 59.0485C137.85 59.052 137.818 59.0538 137.786 59.0555C137.751 59.0591 137.718 59.0626 137.682 59.0661C137.653 59.0696 137.623 59.0732 137.593 59.0767C137.557 59.0802 137.521 59.0855 137.487 59.0908C137.457 59.0944 137.427 59.0996 137.397 59.1032C137.362 59.1085 137.329 59.1138 137.294 59.1208C137.262 59.1261 137.23 59.1314 137.198 59.1385C137.165 59.1438 137.133 59.1491 137.102 59.1561C137.066 59.1632 137.031 59.172 136.996 59.1791C136.938 59.1914 136.88 59.2055 136.82 59.2214C136.79 59.2285 136.76 59.2355 136.729 59.2443C136.693 59.2532 136.658 59.2638 136.625 59.2743C136.595 59.2814 136.567 59.2902 136.538 59.299C136.503 59.3096 136.47 59.3202 136.435 59.3308C136.406 59.3396 136.378 59.3485 136.352 59.359C136.315 59.3714 136.28 59.3837 136.245 59.3961C136.218 59.4049 136.19 59.4155 136.162 59.4261C136.128 59.4384 136.093 59.4508 136.06 59.4649C136.032 59.4755 136.002 59.4879 135.974 59.5002C135.94 59.5126 135.908 59.5267 135.875 59.5408C135.847 59.5531 135.817 59.5673 135.789 59.5796C135.731 59.6061 135.673 59.6326 135.614 59.6608C135.583 59.6749 135.553 59.6908 135.523 59.7049C135.49 59.7225 135.458 59.7402 135.424 59.7561C135.398 59.7702 135.37 59.7843 135.343 59.8002C135.312 59.8178 135.28 59.8355 135.247 59.8549C135.22 59.869 135.194 59.8849 135.166 59.9008C135.134 59.9184 135.102 59.9378 135.071 59.9572C135.044 59.9749 135.018 59.9908 134.99 60.0084C134.96 60.0278 134.928 60.0472 134.898 60.0684C134.87 60.0843 134.845 60.1037 134.817 60.1213C134.787 60.1425 134.757 60.1619 134.726 60.1831C134.698 60.2025 134.671 60.2237 134.643 60.2431C134.615 60.2643 134.587 60.2854 134.557 60.3066C134.263 60.5272 133.981 60.7778 133.715 61.0583V57.178C133.756 57.1939 133.798 57.2009 133.842 57.2009C134.041 57.2009 134.201 57.0404 134.201 56.841C134.201 56.6539 134.06 56.5004 133.879 56.481V53.9506C133.925 53.9029 133.955 53.8376 133.955 53.7653V53.4283C133.955 53.2924 133.849 53.1777 133.715 53.1653V52.6942C133.855 52.883 133.995 52.8265 134.307 52.8459C134.101 52.3942 133.909 51.9425 133.715 51.4907V51.1308ZM138.492 68.3479V65.851H138.494C139.18 65.851 139.738 66.4103 139.738 67.1003C139.738 67.7885 139.18 68.3479 138.494 68.3479H138.492ZM141.546 64.6828C140.833 63.7811 139.729 63.2006 138.494 63.2006H138.492V64.6563H138.494C139.838 64.6563 140.93 65.7504 140.93 67.1003C140.93 68.4502 139.838 69.5442 138.494 69.5442H138.492V70.9983H138.494C139.729 70.9983 140.833 70.4195 141.546 69.516V64.6828ZM141.546 64.0934C140.768 63.3011 139.689 62.8088 138.494 62.8088H138.492V60.4125C139.56 60.446 140.623 60.8254 141.546 61.5489V64.0934ZM138.492 54.3176C139.425 54.4923 140.505 54.6899 141.546 54.8823V57.755L140.393 59.382L139.902 60.0772L140.009 60.1143L140.5 59.4208L141.546 57.9474V59.9202C141.521 59.9061 141.496 59.8919 141.47 59.8761L141.401 59.8372C141.366 59.8161 141.329 59.7967 141.292 59.7772L141.216 59.7367C141.18 59.719 141.144 59.6996 141.107 59.682C141.083 59.6696 141.06 59.6573 141.035 59.6467C140.991 59.6255 140.949 59.6061 140.903 59.5849C140.887 59.5778 140.868 59.569 140.85 59.562C140.791 59.5355 140.729 59.509 140.667 59.4843C140.648 59.4773 140.629 59.4684 140.609 59.4614C140.574 59.4473 140.537 59.4332 140.5 59.4208L140.479 59.412C140.453 59.4032 140.426 59.3926 140.4 59.3837L140.393 59.382C140.359 59.3696 140.326 59.3573 140.291 59.3467C140.263 59.3379 140.234 59.329 140.206 59.3185C140.169 59.3079 140.134 59.2973 140.099 59.2867C140.071 59.2779 140.043 59.269 140.014 59.262C139.976 59.2514 139.939 59.2408 139.902 59.232C139.874 59.2249 139.849 59.2179 139.821 59.2108C139.782 59.202 139.742 59.1932 139.703 59.1843C139.677 59.1773 139.652 59.172 139.625 59.1667C139.569 59.1543 139.516 59.1438 139.46 59.1332C139.432 59.1279 139.404 59.1243 139.376 59.1191C139.332 59.112 139.286 59.1049 139.242 59.0979C139.215 59.0944 139.189 59.0908 139.163 59.0873C139.124 59.082 139.085 59.0767 139.046 59.0714C139.017 59.0696 138.988 59.0661 138.958 59.0626C138.923 59.0591 138.886 59.0555 138.849 59.052C138.819 59.0502 138.789 59.0485 138.76 59.0467C138.724 59.0432 138.687 59.0414 138.652 59.0396C138.621 59.0379 138.592 59.0361 138.562 59.0361C138.54 59.0344 138.515 59.0344 138.492 59.0344V54.3176ZM141.546 69.516V64.6828C142.068 65.3481 142.382 66.188 142.382 67.1003C142.382 68.0126 142.068 68.8525 141.546 69.516ZM144.36 66.8427V63.7299H143.313C142.836 62.8123 142.228 62.0871 141.546 61.5489V64.0934C142.061 64.6175 142.441 65.2757 142.633 66.0115H143.313V66.8427H144.36ZM141.546 54.8823L142.397 55.0393L142.684 55.0923L142.894 55.1311L143.042 55.1593C143.522 55.2493 143.969 55.3322 144.36 55.4081V60.2325L144.279 60.2272L144.126 62.1471L144.36 62.1665V63.1653C144.339 63.1194 144.316 63.0717 144.295 63.0276L144.252 62.9394C144.23 62.8917 144.207 62.8476 144.184 62.8018C144.17 62.7735 144.156 62.7453 144.142 62.7188C144.115 62.6712 144.091 62.6253 144.064 62.5777C144.052 62.5529 144.038 62.5282 144.024 62.5035C143.99 62.4453 143.957 62.3871 143.922 62.3288L143.904 62.2988C143.862 62.2318 143.821 62.1647 143.779 62.0994C143.767 62.08 143.753 62.0606 143.74 62.0412C143.71 61.9953 143.679 61.9495 143.649 61.9053C143.633 61.8824 143.617 61.8595 143.6 61.8365C143.571 61.7959 143.543 61.7571 143.513 61.7183C143.496 61.6936 143.476 61.6689 143.459 61.6459C143.432 61.6089 143.402 61.5736 143.374 61.5365C143.357 61.5136 143.337 61.4889 143.316 61.4642C143.286 61.4271 143.255 61.3901 143.223 61.353C143.207 61.3336 143.191 61.3142 143.175 61.2948C143.135 61.2471 143.093 61.2013 143.052 61.1554L143.026 61.1272C142.976 61.0742 142.925 61.0195 142.874 60.9683C142.86 60.9542 142.848 60.9419 142.834 60.9278C142.795 60.8907 142.758 60.8519 142.72 60.8166C142.7 60.7972 142.681 60.7778 142.66 60.7601C142.626 60.7284 142.595 60.6984 142.561 60.6684L142.496 60.6119C142.463 60.5837 142.431 60.5554 142.397 60.5272C142.375 60.5078 142.352 60.4901 142.331 60.4707C142.297 60.4443 142.264 60.4178 142.23 60.3913C142.209 60.3737 142.186 60.356 142.163 60.3384C142.126 60.3102 142.086 60.2819 142.049 60.2537C142.031 60.2396 142.012 60.2272 141.994 60.2131C141.938 60.1743 141.884 60.1355 141.827 60.0966C141.808 60.0861 141.79 60.0737 141.773 60.0631C141.732 60.0366 141.692 60.0102 141.649 59.9837C141.63 59.9714 141.607 59.959 141.586 59.9449L141.546 59.9202V57.9474L142.894 56.0434V60.4213H143.042V53.4953C143.13 53.453 143.189 53.363 143.189 53.2589V53.1C143.189 52.9536 143.07 52.8354 142.925 52.8354H142.684V51.9584C142.684 51.8789 142.619 51.8154 142.54 51.8154H142.397V55.2264H142.54C142.616 55.2264 142.679 55.1664 142.684 55.0923V53.5235H142.894V55.8475L141.546 57.755V54.8823ZM144.758 66.8427H144.36V63.7299H144.592C144.56 63.6488 144.531 63.5676 144.499 63.4899L144.465 63.4141C144.444 63.3611 144.421 63.3082 144.4 63.2553L144.36 63.1688V62.1665L144.666 62.1912C144.696 62.193 144.728 62.193 144.758 62.1912V66.8427ZM144.36 55.4081C144.499 55.4346 144.633 55.4611 144.758 55.4858V60.2643L144.36 60.2325V55.4081ZM144.758 55.4858C145.257 55.5846 145.623 55.6622 145.778 55.7081C146.831 56.0134 147.273 56.6151 147.366 57.3792C147.39 57.5821 147.383 57.785 147.383 57.9897V63.7299H147.477V65.1963H147.142V66.2868H147.477V66.8427H144.758V62.1912C145.057 62.1718 145.307 61.9318 145.331 61.623L145.386 60.9366C145.414 60.5978 145.159 60.2978 144.819 60.2696L144.758 60.2643V55.4858ZM147.477 63.7299H147.656C147.845 63.7299 147.999 63.8852 147.999 64.074V66.4986C147.999 66.6874 147.845 66.8427 147.656 66.8427H147.477V66.2868H147.813V65.1963H147.477V63.7299Z" fill="white"/>
</g>
<mask id="mask1_2023_12950" style="mask-type:luminance" maskUnits="userSpaceOnUse" x="20" y="14" width="79" height="48">
<path d="M20.3008 14.2808H98.0214V61.3229H20.3008V14.2808Z" fill="white"/>
</mask>
<g mask="url(#mask1_2023_12950)">
<path d="M20.3008 61.2789L65.9704 22.8779L34.6534 14.6655H98.0214L20.3008 61.2789Z" fill="white"/>
</g>
<path d="M86.3442 45.4486L59.4219 42.2618L73.338 33.9082L86.3442 45.4486Z" fill="white"/>
<mask id="mask2_2023_12950" style="mask-type:luminance" maskUnits="userSpaceOnUse" x="76" y="0" width="12" height="12">
<path d="M76.3047 0H87.5685V11.1187H76.3047V0Z" fill="white"/>
</mask>
<g mask="url(#mask2_2023_12950)">
<path d="M76.6328 0.0439453H87.432V10.8468H76.6328V0.0439453Z" fill="white"/>
</g>
<mask id="mask3_2023_12950" style="mask-type:luminance" maskUnits="userSpaceOnUse" x="19" y="38" width="87" height="31">
<path d="M105.588 38.2227H19.082V68.0372H105.588V38.2227Z" fill="white"/>
</mask>
<g mask="url(#mask3_2023_12950)">
<path d="M30.3505 52.5403C30.6549 52.2827 30.8521 51.9651 30.9418 51.5874C31.0351 51.2116 30.9841 50.8993 30.7869 50.6487C30.5933 50.3999 30.317 50.2746 29.9562 50.2746H28.6468L29.393 46.9995H31.85C33.3741 46.9995 34.4635 47.423 35.1165 48.27C35.7677 49.117 35.956 50.1599 35.6797 51.3969C35.472 52.2774 35.0496 53.0732 34.4125 53.7826C33.7736 54.4884 32.9693 55.009 31.9978 55.3425L33.8071 61.3491H28.6468L27.3163 56.1118L28.0414 52.9215H29.3578C29.7134 52.9215 30.0442 52.7944 30.3505 52.5403ZM23.6978 61.3491H19.8047L23.0923 46.9995H26.9854L23.6978 61.3491Z" fill="#FF8F3F" fill-opacity="0.4"/>
<path d="M53.5439 46.9995L51.5657 55.5684C51.1099 57.5306 50.1472 59.0269 48.6794 60.0575C47.2098 61.0845 45.3372 61.5962 43.0615 61.5962C43.0193 61.5962 42.977 61.5962 42.9348 61.5962L43.7233 58.1588C43.7655 58.1588 43.8007 58.1588 43.8289 58.1588C44.649 58.1588 45.3319 57.917 45.8775 57.4318C46.4266 56.943 46.7962 56.3024 46.9898 55.5119L48.9469 46.9995H53.5439ZM40.5835 61.328C39.1843 60.9945 38.1987 60.3398 37.6267 59.3658C37.0582 58.3917 36.9544 57.1265 37.3169 55.5684L39.2952 46.9995H43.8922L40.5835 61.328Z" fill="#FF8F3F" fill-opacity="0.4"/>
<path d="M70.8489 46.9995L67.5613 61.3491H63.5485L60.9086 57.1777L62.5277 50.084L65.0058 54.072L66.625 46.9995H70.8489ZM59.1415 54.3826L57.5364 61.3491H53.3125L56.6001 46.9995H60.6129L60.7818 47.2466L59.1415 54.3826Z" fill="#FF8F3F" fill-opacity="0.4"/>
<path d="M30.3505 52.5403C30.6549 52.2827 30.8521 51.9651 30.9418 51.5874C31.0351 51.2116 30.9841 50.8993 30.7869 50.6487C30.5933 50.3999 30.317 50.2746 29.9562 50.2746H28.6468L29.393 46.9995H31.85C33.3741 46.9995 34.4635 47.423 35.1165 48.27C35.7677 49.117 35.956 50.1599 35.6797 51.3969C35.472 52.2774 35.0496 53.0732 34.4125 53.7826C33.7736 54.4884 32.9693 55.009 31.9978 55.3425L33.8071 61.3491H28.6468L27.3163 56.1118L28.0414 52.9215H29.3578C29.7134 52.9215 30.0442 52.7944 30.3505 52.5403ZM23.6978 61.3491H19.8047L23.0923 46.9995H26.9854L23.6978 61.3491Z" fill="white"/>
<path d="M53.5439 46.9995L51.5657 55.5684C51.1099 57.5306 50.1472 59.0269 48.6794 60.0575C47.2098 61.0845 45.3372 61.5962 43.0615 61.5962C43.0193 61.5962 42.977 61.5962 42.9348 61.5962L43.7233 58.1588C43.7655 58.1588 43.8007 58.1588 43.8289 58.1588C44.649 58.1588 45.3319 57.917 45.8775 57.4318C46.4266 56.943 46.7962 56.3024 46.9898 55.5119L48.9469 46.9995H53.5439ZM40.5835 61.328C39.1843 60.9945 38.1987 60.3398 37.6267 59.3658C37.0582 58.3917 36.9544 57.1265 37.3169 55.5684L39.2952 46.9995H43.8922L40.5835 61.328Z" fill="white"/>
<path d="M70.8489 46.9995L67.5613 61.3491H63.5485L60.9086 57.1777L62.5277 50.084L65.0058 54.072L66.625 46.9995H70.8489ZM59.1415 54.3826L57.5364 61.3491H53.3125L56.6001 46.9995H60.6129L60.7818 47.2466L59.1415 54.3826Z" fill="white"/>
</g>
<mask id="mask4_2023_12950" style="mask-type:luminance" maskUnits="userSpaceOnUse" x="83" y="19" width="33" height="50">
<path d="M115.952 19.7017H83.5117V68.489H115.952V19.7017Z" fill="white"/>
</mask>
<g mask="url(#mask4_2023_12950)">
<mask id="mask5_2023_12950" style="mask-type:luminance" maskUnits="userSpaceOnUse" x="84" y="33" width="32" height="25">
<path d="M84.4102 33.7056H115.822V57.6475H84.4102V33.7056Z" fill="white"/>
</mask>
<g mask="url(#mask5_2023_12950)">
<path d="M115.575 34.1299L105.494 45.155L111.013 57.4648H101.946L99.3061 50.2088H99.1723L93.2166 57.4648H84.832L95.9903 45.1197L90.9849 34.1299H100.017L102.185 40.1013H102.319L107.226 34.1299H115.575Z" fill="#FF8F3F" fill-opacity="0.4"/>
<path d="M115.575 34.1299L105.494 45.155L111.013 57.4648H101.946L99.3061 50.2088H99.1723L93.2166 57.4648H84.832L95.9903 45.1197L90.9849 34.1299H100.017L102.185 40.1013H102.319L107.226 34.1299H115.575Z" fill="white"/>
</g>
</g>
</svg>
